<?xml version="1.0" encoding="utf-8"?>
<!-- Generator: Adobe Illustrator 27.5.0, SVG Export Plug-In . SVG Version: 6.00 Build 0)  -->
<svg version="1.1" baseProfile="tiny" xmlns="http://www.w3.org/2000/svg" xmlns:xlink="http://www.w3.org/1999/xlink" x="0px"
	 y="0px" viewBox="0 0 841.89 595.28" overflow="visible" xml:space="preserve">
<g id="carrier_board">
	
		<rect id="area_00000181069907545212398820000005918022219693752243_" x="304.64" y="248.75" fill="#FFFFFF" stroke="#EC1C24" stroke-miterlimit="10" width="311.81" height="102.05"/>
	
		<rect id="stemma_qt_00000106853674466640175090000016778522140111097265_" x="510.37" y="288.89" fill="none" stroke="#ED1C24" stroke-miterlimit="10" width="14.17" height="22.68"/>
</g>
<g id="featherboard">
	
		<rect id="area" x="353.16" y="229.82" transform="matrix(6.123234e-17 -1 1 6.123234e-17 83.7348 687.3755)" fill="#FFFFFF" stroke="#231F20" stroke-miterlimit="10" width="64.8" height="144"/>
	
		<text id="length" transform="matrix(1 0 0 1 366.1615 267.0185)" fill="#231F20" font-family="'MyriadPro-Regular'" font-size="6px">50.8 mm (2.0 in)</text>
	
		<text id="width_00000183937181985786649570000015043754341653260684_" transform="matrix(0 -1 1 0 311.854 322.0815)" fill="#231F20" font-family="'MyriadPro-Regular'" font-size="6px">22.86 mm (0.9 in)</text>
	
		<rect id="hole_perimeter" x="320.92" y="276.43" fill="#FFFFFF" stroke="#FFF100" stroke-miterlimit="10" width="129.6" height="50.4"/>
	<g id="feather_sinks">
		<circle fill="#FFFFFF" stroke="#EC1C24" stroke-miterlimit="10" cx="320.92" cy="276.43" r="3.6"/>
		<circle fill="#FFFFFF" stroke="#EC1C24" stroke-miterlimit="10" cx="450.52" cy="326.83" r="3.6"/>
		<circle fill="#FFFFFF" stroke="#EC1C24" stroke-miterlimit="10" cx="320.92" cy="326.83" r="3.6"/>
		<circle fill="#FFFFFF" stroke="#EC1C24" stroke-miterlimit="10" cx="450.52" cy="276.43" r="3.6"/>
	</g>
	
		<text id="hole_diameter" transform="matrix(1 0 0 1 326.1201 323.2322)" fill="#231F20" font-family="'MyriadPro-Regular'" font-size="6px">Hole D = 25.4mm (0.1 in)</text>
	
		<text id="width" transform="matrix(0 -1 1 0 448.5169 321.6235)" fill="#231F20" font-family="'MyriadPro-Regular'" font-size="6px">17.78mm (0.7in)</text>
	
		<text id="length_00000111870440689430608820000018317457161526262715_" transform="matrix(1 0 0 1 366.1427 281.6392)" fill="#231F20" font-family="'MyriadPro-Regular'" font-size="6px">45.74 mm (1.8 in)</text>
	<rect id="stemma_qt" x="372.02" y="289.13" fill="none" stroke="#ED1C24" stroke-miterlimit="10" width="14.17" height="22.68"/>
</g>
<g id="battery">
	
		<rect id="area_00000177466264201862396170000012888078070569793183_" x="394.14" y="257.67" fill="none" stroke="#FFF200" stroke-miterlimit="10" width="107.72" height="85.04"/>
</g>
<g id="scd40">
	
		<rect id="area_00000169529580356692750040000010801188103347093923_" x="541.95" y="265.63" transform="matrix(6.123234e-17 -1 1 6.123234e-17 272.7212 875.9854)" fill="#FFFFFF" stroke="#231F20" stroke-miterlimit="10" width="64.8" height="72"/>
	
		<rect id="hole_perimeter_00000155129516037897538940000013360745265126431131_" x="545.55" y="276.62" fill="#FFFFFF" stroke="#FFF100" stroke-miterlimit="10" width="57.6" height="50.4"/>
	<circle fill="#FFFFFF" stroke="#EC1C24" stroke-miterlimit="10" cx="545.55" cy="276.62" r="3.6"/>
	<circle fill="#FFFFFF" stroke="#EC1C24" stroke-miterlimit="10" cx="603.15" cy="327.02" r="3.6"/>
	<circle fill="#FFFFFF" stroke="#EC1C24" stroke-miterlimit="10" cx="545.55" cy="327.02" r="3.6"/>
	<circle fill="#FFFFFF" stroke="#EC1C24" stroke-miterlimit="10" cx="603.15" cy="276.62" r="3.6"/>
</g>
<g id="Layer_3">
</g>
</svg>
