<?xml version="1.0" encoding="utf-8"?>
<!-- Generator: Adobe Illustrator 27.9.1, SVG Export Plug-In . SVG Version: 6.00 Build 0)  -->
<svg version="1.1" id="rco2_carrier_board" xmlns="http://www.w3.org/2000/svg" xmlns:xlink="http://www.w3.org/1999/xlink" x="0px"
	 y="0px" viewBox="0 0 841.9 595.3" style="enable-background:new 0 0 841.9 595.3;" xml:space="preserve">
<style type="text/css">
	.st0{fill:#FFFFFF;stroke:#EC1C24;stroke-miterlimit:10;}
	.st1{fill:none;stroke:#ED1C24;stroke-miterlimit:10;}
	.st2{fill:#FFFFFF;stroke:#231F20;stroke-miterlimit:10;}
	.st3{fill:#231F20;}
	.st4{fill:#FFFFFF;stroke:#FFF100;stroke-miterlimit:10;}
	.st5{fill:none;stroke:#FFF200;stroke-miterlimit:10;}
</style>
<g id="carrier_board">
	<path id="area_00000062892251559613541560000007171532731759483065_" class="st0" d="M632.5,351.5H288c-6.6,0-12-5.4-12-12v-78
		c0-6.6,5.4-12,12-12h344.5c6.6,0,12,5.4,12,12v78C644.5,346.1,639.1,351.5,632.5,351.5z"/>
	
		<rect id="stemma_qt_00000106853674466640175090000016778522140111097265_" x="542.4" y="289.1" class="st1" width="14.2" height="22.7"/>
</g>
<g id="featherboard">
	<g id="exterior">
		<rect id="area" x="284.6" y="268.1" class="st2" width="144" height="64.8"/>
		<g>
			<path class="st3" d="M282.9,321.8h-0.3l-0.4-0.4c-1-1-1.5-1.5-2-1.5c-0.4,0-0.8,0.2-0.8,0.8c0,0.4,0.2,0.6,0.3,0.8l-0.4,0.2
				c-0.2-0.3-0.4-0.6-0.4-1.1c0-0.8,0.6-1.2,1.1-1.2c0.7,0,1.3,0.5,2.1,1.3l0.3,0.3h0v-1.8h0.4V321.8z"/>
			<path class="st3" d="M282.9,318.7h-0.3l-0.4-0.4c-1-1-1.5-1.5-2-1.5c-0.4,0-0.8,0.2-0.8,0.8c0,0.4,0.2,0.6,0.3,0.8l-0.4,0.2
				c-0.2-0.3-0.4-0.6-0.4-1.1c0-0.8,0.6-1.2,1.1-1.2c0.7,0,1.3,0.5,2.1,1.3l0.3,0.3h0v-1.8h0.4V318.7z"/>
			<path class="st3" d="M282.5,315.6c-0.2,0-0.4-0.1-0.4-0.4s0.2-0.4,0.4-0.4s0.4,0.1,0.4,0.4C282.9,315.5,282.8,315.6,282.5,315.6z
				"/>
			<path class="st3" d="M281.9,314.5c-0.5,0-0.8-0.3-1-0.8l0,0c-0.2,0.4-0.5,0.6-0.9,0.6c-0.6,0-1-0.5-1-1.2c0-0.8,0.5-1.1,1-1.1
				c0.3,0,0.7,0.2,0.9,0.6h0c0.2-0.5,0.5-0.8,1-0.8c0.7,0,1.1,0.6,1.1,1.3C282.9,314,282.4,314.5,281.9,314.5z M279.9,313.8
				c0.4,0,0.6-0.3,0.7-0.7c-0.1-0.3-0.4-0.6-0.7-0.6c-0.3,0-0.6,0.2-0.6,0.7C279.3,313.6,279.6,313.8,279.9,313.8z M281.8,312.4
				c-0.5,0-0.7,0.3-0.9,0.9c0.1,0.5,0.4,0.7,0.8,0.7c0.4,0,0.7-0.3,0.7-0.8C282.5,312.7,282.2,312.4,281.8,312.4z"/>
			<path class="st3" d="M279.3,309.1c0,0.1,0,0.2,0,0.4c0.1,0.8,0.7,1.3,1.4,1.4v0c-0.2-0.2-0.5-0.5-0.5-0.9c0-0.7,0.5-1.2,1.3-1.2
				c0.7,0,1.4,0.5,1.4,1.3c0,0.8-0.6,1.4-1.7,1.4c-0.8,0-1.4-0.3-1.8-0.7c-0.3-0.3-0.5-0.8-0.6-1.2c0-0.2,0-0.3,0-0.4L279.3,309.1
				L279.3,309.1z M281.6,309.3c-0.6,0-0.9,0.3-0.9,0.8c0,0.3,0.2,0.6,0.5,0.8c0.1,0,0.1,0.1,0.2,0.1c0.6,0,1.1-0.3,1.1-0.9
				C282.5,309.6,282.1,309.3,281.6,309.3z"/>
			<path class="st3" d="M280.7,306.8c-0.3,0-0.5,0-0.8,0v-0.5l0.5,0v0c-0.3-0.2-0.5-0.4-0.5-0.9c0-0.4,0.2-0.7,0.6-0.8v0
				c-0.2-0.1-0.3-0.2-0.4-0.3c-0.1-0.2-0.2-0.4-0.2-0.6c0-0.4,0.2-1,1.3-1h1.7v0.5h-1.6c-0.6,0-0.9,0.2-0.9,0.6
				c0,0.3,0.2,0.5,0.5,0.6c0.1,0,0.2,0,0.3,0h1.8v0.5h-1.7c-0.5,0-0.8,0.2-0.8,0.6c0,0.3,0.3,0.6,0.5,0.6c0.1,0,0.2,0,0.3,0h1.8v0.5
				L280.7,306.8L280.7,306.8z"/>
			<path class="st3" d="M280.7,301.8c-0.3,0-0.5,0-0.8,0v-0.5l0.5,0v0c-0.3-0.2-0.5-0.4-0.5-0.9c0-0.4,0.2-0.7,0.6-0.8v0
				c-0.2-0.1-0.3-0.2-0.4-0.3c-0.1-0.2-0.2-0.4-0.2-0.6c0-0.4,0.2-1,1.3-1h1.7v0.5h-1.6c-0.6,0-0.9,0.2-0.9,0.6
				c0,0.3,0.2,0.5,0.5,0.6c0.1,0,0.2,0,0.3,0h1.8v0.5h-1.7c-0.5,0-0.8,0.2-0.8,0.6c0,0.3,0.3,0.6,0.5,0.6c0.1,0,0.2,0,0.3,0h1.8v0.5
				L280.7,301.8L280.7,301.8z"/>
			<path class="st3" d="M278.7,294.4c0.6,0.4,1.4,0.8,2.5,0.8c1.1,0,1.8-0.3,2.4-0.8v0.4c-0.5,0.4-1.3,0.8-2.4,0.8
				c-1.2,0-2-0.4-2.5-0.8V294.4z"/>
			<path class="st3" d="M280.9,291.4c1.3,0,2.1,0.5,2.1,1.4c0,0.8-0.7,1.3-2,1.3c-1.3,0-2-0.6-2-1.4
				C278.9,291.9,279.6,291.4,280.9,291.4z M280.9,293.5c1,0,1.6-0.3,1.6-0.8c0-0.5-0.6-0.8-1.6-0.8c-1,0-1.6,0.2-1.6,0.8
				C279.3,293.2,279.9,293.5,280.9,293.5z"/>
			<path class="st3" d="M282.5,290.9c-0.2,0-0.4-0.1-0.4-0.4s0.2-0.4,0.4-0.4s0.4,0.1,0.4,0.4C282.9,290.7,282.8,290.9,282.5,290.9z
				"/>
			<path class="st3" d="M282.5,289.4c0-0.1,0-0.2,0-0.4c0-0.3-0.2-0.6-0.4-0.8c-0.2-0.3-0.6-0.4-1-0.5v0c0.3,0.2,0.4,0.5,0.4,0.9
				c0,0.7-0.5,1.1-1.2,1.1c-0.7,0-1.4-0.5-1.4-1.3s0.6-1.3,1.6-1.3c0.9,0,1.5,0.3,1.8,0.7c0.3,0.3,0.5,0.7,0.5,1.1
				c0,0.2,0,0.4,0,0.5L282.5,289.4L282.5,289.4z M280.2,289.2c0.5,0,0.8-0.3,0.8-0.8c0-0.4-0.2-0.6-0.4-0.8c0,0-0.1,0-0.2,0
				c-0.7,0-1.2,0.2-1.2,0.8C279.3,288.9,279.7,289.2,280.2,289.2z"/>
			<path class="st3" d="M279.1,284.6c0.2,0,0.3,0.1,0.3,0.3c0,0.2-0.1,0.3-0.3,0.3c-0.2,0-0.3-0.1-0.3-0.3
				C278.8,284.7,279,284.6,279.1,284.6z M282.9,285.2H280v-0.5h2.9V285.2z"/>
			<path class="st3" d="M280.7,283.8c-0.3,0-0.5,0-0.8,0v-0.5l0.5,0v0c-0.3-0.1-0.5-0.5-0.5-1c0-0.4,0.2-1,1.2-1h1.7v0.5h-1.7
				c-0.5,0-0.9,0.2-0.9,0.7c0,0.4,0.2,0.6,0.5,0.7c0.1,0,0.2,0,0.2,0h1.8v0.5H280.7z"/>
			<path class="st3" d="M283.6,280.8c-0.6-0.4-1.4-0.8-2.5-0.8c-1.1,0-1.8,0.3-2.4,0.8v-0.4c0.5-0.4,1.3-0.8,2.4-0.8
				s1.9,0.4,2.5,0.8L283.6,280.8L283.6,280.8z"/>
		</g>
		<g>
			<path class="st3" d="M339.8,263.6h-1.5l-0.1,1c0.1,0,0.2,0,0.3,0c0.3,0,0.6,0.1,0.8,0.2c0.3,0.2,0.6,0.5,0.6,1
				c0,0.8-0.6,1.3-1.5,1.3c-0.4,0-0.8-0.1-1-0.2l0.1-0.4c0.2,0.1,0.5,0.2,0.8,0.2c0.5,0,0.9-0.3,0.9-0.9c0-0.5-0.3-0.9-1.1-0.9
				c-0.2,0-0.4,0-0.5,0l0.2-1.9h1.9V263.6z"/>
			<path class="st3" d="M343.1,265c0,1.3-0.5,2.1-1.4,2.1c-0.8,0-1.3-0.7-1.3-2c0-1.3,0.6-2,1.4-2C342.6,263,343.1,263.8,343.1,265z
				 M341,265.1c0,1,0.3,1.6,0.8,1.6c0.5,0,0.8-0.6,0.8-1.6c0-1-0.2-1.6-0.8-1.6C341.3,263.5,341,264,341,265.1z"/>
			<path class="st3" d="M343.6,266.7c0-0.2,0.1-0.4,0.4-0.4s0.4,0.2,0.4,0.4s-0.1,0.4-0.4,0.4C343.8,267.1,343.6,266.9,343.6,266.7z
				"/>
			<path class="st3" d="M344.8,266c0-0.5,0.3-0.8,0.8-1l0,0c-0.4-0.2-0.6-0.5-0.6-0.9c0-0.6,0.5-1,1.2-1c0.8,0,1.1,0.5,1.1,1
				c0,0.3-0.2,0.7-0.6,0.9v0c0.5,0.2,0.8,0.5,0.8,1c0,0.7-0.6,1.1-1.3,1.1C345.3,267.1,344.8,266.6,344.8,266z M346.9,266
				c0-0.5-0.3-0.7-0.9-0.9c-0.5,0.1-0.7,0.4-0.7,0.8c0,0.4,0.3,0.7,0.8,0.7C346.6,266.7,346.9,266.4,346.9,266z M345.4,264.1
				c0,0.4,0.3,0.6,0.7,0.7c0.3-0.1,0.6-0.4,0.6-0.7c0-0.3-0.2-0.6-0.7-0.6C345.7,263.4,345.4,263.7,345.4,264.1z"/>
			<path class="st3" d="M349.4,264.9c0-0.3,0-0.5,0-0.8h0.5l0,0.5h0c0.2-0.3,0.4-0.5,0.9-0.5c0.4,0,0.7,0.2,0.8,0.6h0
				c0.1-0.2,0.2-0.3,0.3-0.4c0.2-0.1,0.4-0.2,0.6-0.2c0.4,0,1,0.2,1,1.3v1.7H353v-1.6c0-0.6-0.2-0.9-0.6-0.9c-0.3,0-0.5,0.2-0.6,0.5
				c0,0.1,0,0.2,0,0.3v1.8h-0.5v-1.7c0-0.5-0.2-0.8-0.6-0.8c-0.3,0-0.6,0.3-0.6,0.5c0,0.1,0,0.2,0,0.3v1.8h-0.5L349.4,264.9
				L349.4,264.9z"/>
			<path class="st3" d="M354.4,264.9c0-0.3,0-0.5,0-0.8h0.5l0,0.5h0c0.2-0.3,0.4-0.5,0.9-0.5c0.4,0,0.7,0.2,0.8,0.6h0
				c0.1-0.2,0.2-0.3,0.3-0.4c0.2-0.1,0.4-0.2,0.6-0.2c0.4,0,1,0.2,1,1.3v1.7H358v-1.6c0-0.6-0.2-0.9-0.6-0.9c-0.3,0-0.5,0.2-0.6,0.5
				c0,0.1,0,0.2,0,0.3v1.8h-0.5v-1.7c0-0.5-0.2-0.8-0.6-0.8c-0.3,0-0.6,0.3-0.6,0.5c0,0.1,0,0.2,0,0.3v1.8h-0.5L354.4,264.9
				L354.4,264.9z"/>
			<path class="st3" d="M361.8,262.9c-0.4,0.6-0.8,1.4-0.8,2.5c0,1.1,0.3,1.8,0.8,2.4h-0.4c-0.4-0.5-0.8-1.3-0.8-2.4
				c0-1.2,0.4-2,0.8-2.5H361.8z"/>
			<path class="st3" d="M362.2,267v-0.3l0.4-0.4c1-1,1.5-1.5,1.5-2c0-0.4-0.2-0.8-0.8-0.8c-0.4,0-0.6,0.2-0.8,0.3l-0.2-0.4
				c0.3-0.2,0.6-0.4,1.1-0.4c0.8,0,1.2,0.6,1.2,1.1c0,0.7-0.5,1.3-1.3,2.1l-0.3,0.3v0h1.8v0.4H362.2z"/>
			<path class="st3" d="M365.3,266.7c0-0.2,0.1-0.4,0.4-0.4s0.4,0.2,0.4,0.4s-0.1,0.4-0.4,0.4C365.4,267.1,365.3,266.9,365.3,266.7z
				"/>
			<path class="st3" d="M369.1,265c0,1.3-0.5,2.1-1.4,2.1c-0.8,0-1.3-0.7-1.3-2c0-1.3,0.6-2,1.4-2C368.6,263,369.1,263.8,369.1,265z
				 M367,265.1c0,1,0.3,1.6,0.8,1.6c0.5,0,0.8-0.6,0.8-1.6c0-1-0.2-1.6-0.8-1.6C367.3,263.5,367,264,367,265.1z"/>
			<path class="st3" d="M371.6,263.3c0,0.2-0.1,0.3-0.3,0.3c-0.2,0-0.3-0.1-0.3-0.3c0-0.2,0.1-0.3,0.3-0.3
				C371.5,263,371.6,263.1,371.6,263.3z M371,267v-2.9h0.5v2.9H371z"/>
			<path class="st3" d="M372.4,264.9c0-0.3,0-0.5,0-0.8h0.5l0,0.5h0c0.1-0.3,0.5-0.5,1-0.5c0.4,0,1,0.2,1,1.2v1.7h-0.5v-1.7
				c0-0.5-0.2-0.9-0.7-0.9c-0.4,0-0.6,0.2-0.7,0.5c0,0.1,0,0.2,0,0.2v1.8h-0.5V264.9z"/>
			<path class="st3" d="M375.4,267.7c0.4-0.6,0.8-1.4,0.8-2.5c0-1.1-0.3-1.8-0.8-2.4h0.4c0.4,0.5,0.8,1.3,0.8,2.4s-0.4,1.9-0.8,2.5
				L375.4,267.7L375.4,267.7z"/>
		</g>
	</g>
	<g id="interior">
		<rect id="stemma_qt" x="344" y="289.1" class="st1" width="14.2" height="22.7"/>
		<rect id="hole_perimeter" x="291.9" y="275.3" class="st4" width="129.6" height="50.4"/>
		<g id="feather_sinks">
			<circle class="st0" cx="291.9" cy="275.3" r="3.6"/>
			<circle class="st0" cx="421.5" cy="325.7" r="3.6"/>
			<circle class="st0" cx="291.9" cy="325.7" r="3.6"/>
			<circle class="st0" cx="421.5" cy="275.3" r="3.6"/>
		</g>
		<g>
			<path class="st3" d="M298.1,319.2v1.7h2v-1.7h0.5v4h-0.5v-1.9h-2v1.9h-0.5v-4H298.1z"/>
			<path class="st3" d="M304.1,321.8c0,1.1-0.7,1.5-1.5,1.5c-0.8,0-1.4-0.6-1.4-1.5c0-1,0.6-1.5,1.4-1.5
				C303.5,320.3,304.1,320.9,304.1,321.8z M301.8,321.8c0,0.6,0.4,1.1,0.9,1.1c0.5,0,0.9-0.5,0.9-1.1c0-0.5-0.2-1.1-0.9-1.1
				C302.1,320.7,301.8,321.2,301.8,321.8z"/>
			<path class="st3" d="M304.8,319h0.5v4.3h-0.5V319z"/>
			<path class="st3" d="M306.5,321.9c0,0.7,0.5,1,1,1c0.4,0,0.6-0.1,0.8-0.1l0.1,0.4c-0.2,0.1-0.5,0.2-1,0.2c-0.9,0-1.4-0.6-1.4-1.5
				c0-0.9,0.5-1.6,1.4-1.6c1,0,1.2,0.8,1.2,1.4c0,0.1,0,0.2,0,0.2L306.5,321.9L306.5,321.9z M308,321.5c0-0.3-0.1-0.9-0.7-0.9
				c-0.5,0-0.8,0.5-0.8,0.9H308z"/>
			<path class="st3" d="M310.5,319.2c0.3,0,0.7-0.1,1.1-0.1c0.8,0,1.3,0.2,1.6,0.5c0.4,0.3,0.6,0.8,0.6,1.5c0,0.7-0.2,1.2-0.6,1.6
				c-0.4,0.4-1,0.6-1.8,0.6c-0.4,0-0.7,0-1,0V319.2z M311,322.8c0.1,0,0.3,0,0.5,0c1.1,0,1.7-0.6,1.7-1.7c0-1-0.5-1.6-1.6-1.6
				c-0.3,0-0.5,0-0.6,0V322.8z"/>
			<path class="st3" d="M315.5,321.2v-0.4h3.1v0.4H315.5z M315.5,322.4V322h3.1v0.4H315.5z"/>
			<path class="st3" d="M320.4,323.2v-0.3l0.4-0.4c1-1,1.5-1.5,1.5-2c0-0.4-0.2-0.8-0.8-0.8c-0.4,0-0.6,0.2-0.8,0.3l-0.2-0.4
				c0.3-0.2,0.6-0.4,1.1-0.4c0.8,0,1.2,0.6,1.2,1.1c0,0.7-0.5,1.3-1.3,2.1l-0.3,0.3v0h1.8v0.4H320.4z"/>
			<path class="st3" d="M325.8,319.8h-1.5l-0.1,1c0.1,0,0.2,0,0.3,0c0.3,0,0.6,0.1,0.8,0.2c0.3,0.2,0.6,0.5,0.6,1
				c0,0.8-0.6,1.3-1.5,1.3c-0.4,0-0.8-0.1-1-0.2l0.1-0.4c0.2,0.1,0.5,0.2,0.8,0.2c0.5,0,0.9-0.3,0.9-0.9c0-0.5-0.3-0.9-1.1-0.9
				c-0.2,0-0.4,0-0.5,0l0.2-1.9h1.9V319.8z"/>
			<path class="st3" d="M326.6,322.9c0-0.2,0.1-0.4,0.4-0.4s0.4,0.2,0.4,0.4s-0.1,0.4-0.4,0.4C326.8,323.3,326.6,323.1,326.6,322.9z
				"/>
			<path class="st3" d="M329.4,323.2v-1.1h-1.8v-0.4l1.7-2.5h0.6v2.4h0.5v0.4h-0.5v1.1L329.4,323.2L329.4,323.2z M329.4,321.8v-1.3
				c0-0.2,0-0.4,0-0.6h0c-0.1,0.2-0.2,0.4-0.3,0.6l-1,1.3v0L329.4,321.8L329.4,321.8z"/>
			<path class="st3" d="M331,321.1c0-0.3,0-0.5,0-0.8h0.5l0,0.5h0c0.2-0.3,0.4-0.5,0.9-0.5c0.4,0,0.7,0.2,0.8,0.6h0
				c0.1-0.2,0.2-0.3,0.3-0.4c0.2-0.1,0.4-0.2,0.6-0.2c0.4,0,1,0.2,1,1.3v1.7h-0.5v-1.6c0-0.6-0.2-0.9-0.6-0.9
				c-0.3,0-0.5,0.2-0.6,0.5c0,0.1,0,0.2,0,0.3v1.8h-0.5v-1.7c0-0.5-0.2-0.8-0.6-0.8c-0.3,0-0.6,0.3-0.6,0.5c0,0.1,0,0.2,0,0.3v1.8
				H331L331,321.1L331,321.1z"/>
			<path class="st3" d="M336,321.1c0-0.3,0-0.5,0-0.8h0.5l0,0.5h0c0.2-0.3,0.4-0.5,0.9-0.5c0.4,0,0.7,0.2,0.8,0.6h0
				c0.1-0.2,0.2-0.3,0.3-0.4c0.2-0.1,0.4-0.2,0.6-0.2c0.4,0,1,0.2,1,1.3v1.7h-0.5v-1.6c0-0.6-0.2-0.9-0.6-0.9
				c-0.3,0-0.5,0.2-0.6,0.5c0,0.1,0,0.2,0,0.3v1.8h-0.5v-1.7c0-0.5-0.2-0.8-0.6-0.8c-0.3,0-0.6,0.3-0.6,0.5c0,0.1,0,0.2,0,0.3v1.8
				H336L336,321.1L336,321.1z"/>
			<path class="st3" d="M343.5,319.1c-0.4,0.6-0.8,1.4-0.8,2.5c0,1.1,0.3,1.8,0.8,2.4h-0.4c-0.4-0.5-0.8-1.3-0.8-2.4
				c0-1.2,0.4-2,0.8-2.5H343.5z"/>
			<path class="st3" d="M346.5,321.2c0,1.3-0.5,2.1-1.4,2.1c-0.8,0-1.3-0.7-1.3-2c0-1.3,0.6-2,1.4-2
				C346,319.3,346.5,320,346.5,321.2z M344.3,321.3c0,1,0.3,1.6,0.8,1.6c0.5,0,0.8-0.6,0.8-1.6c0-1-0.2-1.6-0.8-1.6
				C344.7,319.7,344.3,320.2,344.3,321.3z"/>
			<path class="st3" d="M347,322.9c0-0.2,0.1-0.4,0.4-0.4s0.4,0.2,0.4,0.4s-0.1,0.4-0.4,0.4C347.1,323.3,347,323.1,347,322.9z"/>
			<path class="st3" d="M349.3,319.8L349.3,319.8l-0.7,0.4l-0.1-0.4l0.9-0.5h0.5v3.9h-0.5V319.8z"/>
			<path class="st3" d="M353.3,319.5c0,0.2-0.1,0.3-0.3,0.3c-0.2,0-0.3-0.1-0.3-0.3c0-0.2,0.1-0.3,0.3-0.3
				C353.2,319.2,353.3,319.3,353.3,319.5z M352.7,323.2v-2.9h0.5v2.9H352.7z"/>
			<path class="st3" d="M354.1,321.1c0-0.3,0-0.5,0-0.8h0.5l0,0.5h0c0.1-0.3,0.5-0.5,1-0.5c0.4,0,1,0.2,1,1.2v1.7h-0.5v-1.7
				c0-0.5-0.2-0.9-0.7-0.9c-0.4,0-0.6,0.2-0.7,0.5c0,0.1,0,0.2,0,0.2v1.8h-0.5V321.1z"/>
			<path class="st3" d="M357.1,324c0.4-0.6,0.8-1.4,0.8-2.5c0-1.1-0.3-1.8-0.8-2.4h0.4c0.4,0.5,0.8,1.3,0.8,2.4s-0.4,1.9-0.8,2.5
				L357.1,324L357.1,324z"/>
		</g>
		<g>
			<path class="st3" d="M339,281.6v-1.1h-1.8v-0.4l1.7-2.5h0.6v2.4h0.5v0.4h-0.5v1.1L339,281.6L339,281.6z M339,280.2v-1.3
				c0-0.2,0-0.4,0-0.6h0c-0.1,0.2-0.2,0.4-0.3,0.6l-1,1.3v0L339,280.2L339,280.2z"/>
			<path class="st3" d="M342.8,278.2h-1.5l-0.1,1c0.1,0,0.2,0,0.3,0c0.3,0,0.6,0.1,0.8,0.2c0.3,0.2,0.6,0.5,0.6,1
				c0,0.8-0.6,1.3-1.5,1.3c-0.4,0-0.8-0.1-1-0.2l0.1-0.4c0.2,0.1,0.5,0.2,0.8,0.2c0.5,0,0.9-0.3,0.9-0.9c0-0.5-0.3-0.9-1.1-0.9
				c-0.2,0-0.4,0-0.5,0l0.2-1.9h1.9V278.2z"/>
			<path class="st3" d="M343.6,281.3c0-0.2,0.1-0.4,0.4-0.4s0.4,0.2,0.4,0.4s-0.1,0.4-0.4,0.4C343.8,281.7,343.6,281.5,343.6,281.3z
				"/>
			<path class="st3" d="M347.3,277.7v0.4l-1.7,3.5h-0.5l1.7-3.5v0h-1.9v-0.4L347.3,277.7L347.3,277.7z"/>
			<path class="st3" d="M349.5,281.6v-1.1h-1.8v-0.4l1.7-2.5h0.6v2.4h0.5v0.4H350v1.1L349.5,281.6L349.5,281.6z M349.5,280.2v-1.3
				c0-0.2,0-0.4,0-0.6h0c-0.1,0.2-0.2,0.4-0.3,0.6l-1,1.3v0L349.5,280.2L349.5,280.2z"/>
			<path class="st3" d="M352.4,279.5c0-0.3,0-0.5,0-0.8h0.5l0,0.5h0c0.2-0.3,0.4-0.5,0.9-0.5c0.4,0,0.7,0.2,0.8,0.6h0
				c0.1-0.2,0.2-0.3,0.3-0.4c0.2-0.1,0.4-0.2,0.6-0.2c0.4,0,1,0.2,1,1.3v1.7H356V280c0-0.6-0.2-0.9-0.6-0.9c-0.3,0-0.5,0.2-0.6,0.5
				c0,0.1,0,0.2,0,0.3v1.8h-0.5v-1.7c0-0.5-0.2-0.8-0.6-0.8c-0.3,0-0.6,0.3-0.6,0.5c0,0.1,0,0.2,0,0.3v1.8h-0.5L352.4,279.5
				L352.4,279.5z"/>
			<path class="st3" d="M357.4,279.5c0-0.3,0-0.5,0-0.8h0.5l0,0.5h0c0.2-0.3,0.4-0.5,0.9-0.5c0.4,0,0.7,0.2,0.8,0.6h0
				c0.1-0.2,0.2-0.3,0.3-0.4c0.2-0.1,0.4-0.2,0.6-0.2c0.4,0,1,0.2,1,1.3v1.7H361V280c0-0.6-0.2-0.9-0.6-0.9c-0.3,0-0.5,0.2-0.6,0.5
				c0,0.1,0,0.2,0,0.3v1.8h-0.5v-1.7c0-0.5-0.2-0.8-0.6-0.8c-0.3,0-0.6,0.3-0.6,0.5c0,0.1,0,0.2,0,0.3v1.8h-0.5L357.4,279.5
				L357.4,279.5z"/>
			<path class="st3" d="M364.8,277.5c-0.4,0.6-0.8,1.4-0.8,2.5c0,1.1,0.3,1.8,0.8,2.4h-0.4c-0.4-0.5-0.8-1.3-0.8-2.4
				c0-1.2,0.4-2,0.8-2.5H364.8z"/>
			<path class="st3" d="M366.4,278.2L366.4,278.2l-0.7,0.4l-0.1-0.4l0.9-0.5h0.5v3.9h-0.5V278.2z"/>
			<path class="st3" d="M368.3,281.3c0-0.2,0.1-0.4,0.4-0.4s0.4,0.2,0.4,0.4s-0.1,0.4-0.4,0.4C368.5,281.7,368.3,281.5,368.3,281.3z
				"/>
			<path class="st3" d="M369.5,280.6c0-0.5,0.3-0.8,0.8-1l0,0c-0.4-0.2-0.6-0.5-0.6-0.9c0-0.6,0.5-1,1.2-1c0.8,0,1.1,0.5,1.1,1
				c0,0.3-0.2,0.7-0.6,0.9v0c0.5,0.2,0.8,0.5,0.8,1c0,0.7-0.6,1.1-1.3,1.1C370,281.7,369.5,281.2,369.5,280.6z M371.6,280.6
				c0-0.5-0.3-0.7-0.9-0.9c-0.5,0.1-0.7,0.4-0.7,0.8c0,0.4,0.3,0.7,0.8,0.7C371.3,281.3,371.6,281,371.6,280.6z M370.1,278.7
				c0,0.4,0.3,0.6,0.7,0.7c0.3-0.1,0.6-0.4,0.6-0.7c0-0.3-0.2-0.6-0.7-0.6C370.4,278,370.1,278.3,370.1,278.7z"/>
			<path class="st3" d="M374.6,277.9c0,0.2-0.1,0.3-0.3,0.3c-0.2,0-0.3-0.1-0.3-0.3c0-0.2,0.1-0.3,0.3-0.3
				C374.5,277.6,374.6,277.7,374.6,277.9z M374.1,281.6v-2.9h0.5v2.9H374.1z"/>
			<path class="st3" d="M375.5,279.5c0-0.3,0-0.5,0-0.8h0.5l0,0.5h0c0.1-0.3,0.5-0.5,1-0.5c0.4,0,1,0.2,1,1.2v1.7h-0.5V280
				c0-0.5-0.2-0.9-0.7-0.9c-0.4,0-0.6,0.2-0.7,0.5c0,0.1,0,0.2,0,0.2v1.8h-0.5V279.5z"/>
			<path class="st3" d="M378.5,282.4c0.4-0.6,0.8-1.4,0.8-2.5c0-1.1-0.3-1.8-0.8-2.4h0.4c0.4,0.5,0.8,1.3,0.8,2.4s-0.4,1.9-0.8,2.5
				L378.5,282.4L378.5,282.4z"/>
		</g>
		<g>
			<path class="st3" d="M416.1,320.2L416.1,320.2l0.4,0.7l-0.4,0.1l-0.5-0.9v-0.5h3.9v0.5H416.1z"/>
			<path class="st3" d="M415.6,315.8h0.4l3.5,1.7v0.5l-3.5-1.7h0v1.9h-0.4L415.6,315.8L415.6,315.8z"/>
			<path class="st3" d="M419.2,315.2c-0.2,0-0.4-0.1-0.4-0.4s0.2-0.4,0.4-0.4s0.4,0.1,0.4,0.4C419.6,315,419.4,315.2,419.2,315.2z"
				/>
			<path class="st3" d="M415.6,311.4h0.4l3.5,1.7v0.5l-3.5-1.7h0v1.9h-0.4L415.6,311.4L415.6,311.4z"/>
			<path class="st3" d="M418.5,310.9c-0.5,0-0.8-0.3-1-0.8l0,0c-0.2,0.4-0.5,0.6-0.9,0.6c-0.6,0-1-0.5-1-1.2c0-0.8,0.5-1.1,1-1.1
				c0.3,0,0.7,0.2,0.9,0.6h0c0.2-0.5,0.5-0.8,1-0.8c0.7,0,1.1,0.6,1.1,1.3C419.6,310.4,419.1,310.9,418.5,310.9z M416.5,310.3
				c0.4,0,0.6-0.3,0.7-0.7c-0.1-0.3-0.4-0.6-0.7-0.6c-0.3,0-0.6,0.2-0.6,0.7C415.9,310,416.2,310.3,416.5,310.3z M418.5,308.8
				c-0.5,0-0.7,0.3-0.9,0.9c0.1,0.5,0.4,0.7,0.8,0.7c0.4,0,0.7-0.3,0.7-0.8C419.2,309.1,418.9,308.8,418.5,308.8z"/>
			<path class="st3" d="M417.4,307.6c-0.3,0-0.5,0-0.8,0v-0.5l0.5,0v0c-0.3-0.2-0.5-0.4-0.5-0.9c0-0.4,0.2-0.7,0.6-0.8v0
				c-0.2-0.1-0.3-0.2-0.4-0.3c-0.1-0.2-0.2-0.4-0.2-0.6c0-0.4,0.2-1,1.3-1h1.7v0.5h-1.6c-0.6,0-0.9,0.2-0.9,0.6
				c0,0.3,0.2,0.5,0.5,0.6c0.1,0,0.2,0,0.3,0h1.8v0.5h-1.7c-0.5,0-0.8,0.2-0.8,0.6c0,0.3,0.3,0.6,0.5,0.6c0.1,0,0.2,0,0.3,0h1.8v0.5
				L417.4,307.6L417.4,307.6z"/>
			<path class="st3" d="M417.4,302.6c-0.3,0-0.5,0-0.8,0v-0.5l0.5,0v0c-0.3-0.2-0.5-0.4-0.5-0.9c0-0.4,0.2-0.7,0.6-0.8v0
				c-0.2-0.1-0.3-0.2-0.4-0.3c-0.1-0.2-0.2-0.4-0.2-0.6c0-0.4,0.2-1,1.3-1h1.7v0.5h-1.6c-0.6,0-0.9,0.2-0.9,0.6
				c0,0.3,0.2,0.5,0.5,0.6c0.1,0,0.2,0,0.3,0h1.8v0.5h-1.7c-0.5,0-0.8,0.2-0.8,0.6c0,0.3,0.3,0.6,0.5,0.6c0.1,0,0.2,0,0.3,0h1.8v0.5
				L417.4,302.6L417.4,302.6z"/>
			<path class="st3" d="M415.4,295.2c0.6,0.4,1.4,0.8,2.5,0.8c1.1,0,1.8-0.3,2.4-0.8v0.4c-0.5,0.4-1.3,0.8-2.4,0.8
				c-1.2,0-2-0.4-2.5-0.8V295.2z"/>
			<path class="st3" d="M417.5,292.2c1.3,0,2.1,0.5,2.1,1.4c0,0.8-0.7,1.3-2,1.3c-1.3,0-2-0.6-2-1.4
				C415.5,292.7,416.3,292.2,417.5,292.2z M417.6,294.3c1,0,1.6-0.3,1.6-0.8c0-0.5-0.6-0.8-1.6-0.8c-1,0-1.6,0.2-1.6,0.8
				C416,294,416.5,294.3,417.6,294.3z"/>
			<path class="st3" d="M419.2,291.7c-0.2,0-0.4-0.1-0.4-0.4s0.2-0.4,0.4-0.4s0.4,0.1,0.4,0.4C419.6,291.5,419.4,291.7,419.2,291.7z
				"/>
			<path class="st3" d="M415.6,288h0.4l3.5,1.7v0.5l-3.5-1.7h0v1.9h-0.4L415.6,288L415.6,288z"/>
			<path class="st3" d="M415.8,286.7c0.2,0,0.3,0.1,0.3,0.3c0,0.2-0.1,0.3-0.3,0.3c-0.2,0-0.3-0.1-0.3-0.3
				C415.5,286.8,415.6,286.7,415.8,286.7z M419.5,287.2h-2.9v-0.5h2.9V287.2z"/>
			<path class="st3" d="M417.4,285.9c-0.3,0-0.5,0-0.8,0v-0.5l0.5,0v0c-0.3-0.1-0.5-0.5-0.5-1c0-0.4,0.2-1,1.2-1h1.7v0.5h-1.7
				c-0.5,0-0.9,0.2-0.9,0.7c0,0.4,0.2,0.6,0.5,0.7c0.1,0,0.2,0,0.2,0h1.8v0.5H417.4z"/>
			<path class="st3" d="M420.2,282.8c-0.6-0.4-1.4-0.8-2.5-0.8c-1.1,0-1.8,0.3-2.4,0.8v-0.4c0.5-0.4,1.3-0.8,2.4-0.8
				s1.9,0.4,2.5,0.8L420.2,282.8L420.2,282.8z"/>
		</g>
	</g>
</g>
<g id="battery">
	<rect id="area_00000177466264201862396170000012888078070569793183_" x="430.1" y="258" class="st5" width="107.7" height="85"/>
</g>
<g id="scd40">
	<g id="exterior_00000065047165102339118250000015719290774252357531_">
		<g>
			<path class="st3" d="M583.8,267v-0.3l0.4-0.4c1-1,1.5-1.5,1.5-2c0-0.4-0.2-0.8-0.8-0.8c-0.3,0-0.7,0.2-0.8,0.3l-0.2-0.4
				c0.3-0.2,0.7-0.4,1.1-0.4c0.8,0,1.2,0.6,1.2,1.1c0,0.7-0.5,1.3-1.3,2.1l-0.3,0.3v0h1.8v0.4H583.8z"/>
			<path class="st3" d="M589.2,263.6h-1.5l-0.2,1c0.1,0,0.2,0,0.3,0c0.3,0,0.6,0.1,0.8,0.2c0.3,0.2,0.6,0.5,0.6,1
				c0,0.8-0.6,1.3-1.5,1.3c-0.4,0-0.8-0.1-1-0.2l0.1-0.4c0.2,0.1,0.5,0.2,0.8,0.2c0.5,0,0.9-0.3,0.9-0.9c0-0.5-0.3-0.9-1.1-0.9
				c-0.2,0-0.4,0-0.5,0l0.2-1.9h1.9L589.2,263.6L589.2,263.6z"/>
			<path class="st3" d="M590,266.7c0-0.2,0.2-0.4,0.4-0.4s0.3,0.2,0.3,0.4s-0.1,0.4-0.4,0.4C590.1,267.1,590,266.9,590,266.7z"/>
			<path class="st3" d="M591.5,266.6c0.1,0,0.2,0,0.4,0c0.3,0,0.6-0.2,0.8-0.4c0.3-0.2,0.4-0.6,0.5-1h0c-0.2,0.3-0.5,0.4-0.9,0.4
				c-0.7,0-1.2-0.5-1.2-1.2c0-0.7,0.5-1.4,1.3-1.4s1.3,0.6,1.3,1.6c0,0.9-0.3,1.5-0.7,1.8c-0.3,0.3-0.7,0.5-1.1,0.5
				c-0.2,0-0.4,0-0.5,0L591.5,266.6L591.5,266.6z M591.7,264.4c0,0.5,0.3,0.8,0.8,0.8c0.3,0,0.6-0.2,0.8-0.4c0,0,0-0.1,0-0.2
				c0-0.7-0.2-1.2-0.8-1.2C592,263.5,591.7,263.9,591.7,264.4z"/>
			<path class="st3" d="M595.7,264.9c0-0.3,0-0.5,0-0.8h0.5l0,0.5h0c0.2-0.3,0.4-0.5,0.9-0.5c0.4,0,0.7,0.2,0.8,0.6h0
				c0.1-0.2,0.2-0.3,0.3-0.4c0.2-0.1,0.4-0.2,0.6-0.2c0.4,0,1,0.2,1,1.3v1.7h-0.5v-1.6c0-0.6-0.2-0.9-0.6-0.9
				c-0.3,0-0.5,0.2-0.6,0.5c0,0.1,0,0.2,0,0.3v1.8h-0.5v-1.7c0-0.5-0.2-0.8-0.6-0.8c-0.3,0-0.6,0.3-0.7,0.5c0,0.1,0,0.2,0,0.3v1.8
				h-0.5L595.7,264.9L595.7,264.9z"/>
			<path class="st3" d="M600.7,264.9c0-0.3,0-0.5,0-0.8h0.5l0,0.5h0c0.2-0.3,0.4-0.5,0.9-0.5c0.4,0,0.7,0.2,0.8,0.6h0
				c0.1-0.2,0.2-0.3,0.3-0.4c0.2-0.1,0.4-0.2,0.6-0.2c0.4,0,1,0.2,1,1.3v1.7h-0.5v-1.6c0-0.6-0.2-0.9-0.6-0.9
				c-0.3,0-0.5,0.2-0.6,0.5c0,0.1,0,0.2,0,0.3v1.8h-0.5v-1.7c0-0.5-0.2-0.8-0.6-0.8c-0.3,0-0.6,0.3-0.7,0.5c0,0.1,0,0.2,0,0.3v1.8
				h-0.5L600.7,264.9L600.7,264.9z"/>
			<path class="st3" d="M608.1,262.9c-0.4,0.6-0.8,1.4-0.8,2.5c0,1.1,0.3,1.8,0.8,2.4h-0.4c-0.4-0.5-0.8-1.3-0.8-2.4
				c0-1.2,0.4-2,0.8-2.5H608.1z"/>
			<path class="st3" d="M609.7,263.6L609.7,263.6L609,264l-0.1-0.4l0.8-0.5h0.5v3.9h-0.5V263.6z"/>
			<path class="st3" d="M611.6,266.7c0-0.2,0.2-0.4,0.4-0.4c0.2,0,0.3,0.2,0.3,0.4s-0.1,0.4-0.4,0.4
				C611.8,267.1,611.6,266.9,611.6,266.7z"/>
			<path class="st3" d="M615.4,265c0,1.3-0.5,2.1-1.3,2.1c-0.8,0-1.3-0.7-1.3-2c0-1.3,0.6-2,1.4-2C615,263.1,615.4,263.8,615.4,265z
				 M613.3,265.1c0,1,0.3,1.6,0.8,1.6c0.5,0,0.8-0.6,0.8-1.6c0-1-0.2-1.6-0.8-1.6C613.6,263.5,613.3,264,613.3,265.1z"/>
			<path class="st3" d="M617.9,263.3c0,0.2-0.1,0.3-0.3,0.3c-0.2,0-0.3-0.1-0.3-0.3c0-0.2,0.1-0.3,0.3-0.3
				C617.8,263,617.9,263.1,617.9,263.3z M617.3,267v-2.9h0.5v2.9H617.3z"/>
			<path class="st3" d="M618.8,264.9c0-0.3,0-0.5,0-0.8h0.5l0,0.5h0c0.1-0.3,0.5-0.5,1-0.5c0.4,0,1,0.2,1,1.2v1.7h-0.5v-1.7
				c0-0.5-0.2-0.9-0.7-0.9c-0.3,0-0.6,0.2-0.7,0.5c0,0.1,0,0.2,0,0.2v1.8h-0.5V264.9z"/>
			<path class="st3" d="M621.8,267.7c0.4-0.6,0.8-1.4,0.8-2.5c0-1.1-0.3-1.8-0.8-2.4h0.4c0.4,0.5,0.8,1.3,0.8,2.4s-0.4,1.9-0.8,2.5
				L621.8,267.7L621.8,267.7z"/>
		</g>
		<rect id="area_00000169529580356692750040000010801188103347093923_" x="565.4" y="268.1" class="st2" width="72" height="64.8"/>
	</g>
	<g id="interior_00000132781939850181519310000014990818703101974457_">
		
			<rect id="hole_perimeter_00000155129516037897538940000013360745265126431131_" x="572.5" y="275.3" class="st4" width="57.6" height="50.4"/>
		<circle class="st0" cx="572.5" cy="275.3" r="3.6"/>
		<circle class="st0" cx="630.2" cy="325.7" r="3.6"/>
		<circle class="st0" cx="572.5" cy="325.7" r="3.6"/>
		<circle class="st0" cx="630.2" cy="275.3" r="3.6"/>
		<g>
			<path class="st3" d="M581.5,281.6v-0.3l0.4-0.4c1-1,1.5-1.5,1.5-2c0-0.4-0.2-0.8-0.8-0.8c-0.3,0-0.7,0.2-0.8,0.3l-0.2-0.4
				c0.3-0.2,0.7-0.4,1.1-0.4c0.8,0,1.2,0.6,1.2,1.1c0,0.7-0.5,1.3-1.3,2.1l-0.3,0.3v0h1.8v0.4H581.5z"/>
			<path class="st3" d="M587.2,279.6c0,1.3-0.5,2.1-1.4,2.1c-0.8,0-1.3-0.7-1.3-2c0-1.3,0.6-2,1.4-2
				C586.7,277.7,587.2,278.4,587.2,279.6z M585,279.7c0,1,0.3,1.6,0.8,1.6c0.5,0,0.8-0.6,0.8-1.6c0-1-0.2-1.6-0.8-1.6
				C585.4,278.1,585,278.6,585,279.7z"/>
			<path class="st3" d="M587.7,281.3c0-0.2,0.2-0.4,0.4-0.4c0.2,0,0.3,0.2,0.3,0.4s-0.1,0.4-0.4,0.4
				C587.8,281.7,587.7,281.5,587.7,281.3z"/>
			<path class="st3" d="M589,281c0.2,0.1,0.5,0.2,0.9,0.2c0.7,0,0.9-0.4,0.9-0.8c0-0.5-0.5-0.8-1-0.8h-0.3v-0.4h0.3
				c0.4,0,0.9-0.2,0.9-0.7c0-0.3-0.2-0.6-0.7-0.6c-0.3,0-0.6,0.1-0.8,0.3L589,278c0.2-0.1,0.6-0.3,1-0.3c0.8,0,1.1,0.5,1.1,0.9
				c0,0.4-0.2,0.7-0.7,0.9v0c0.5,0.1,0.9,0.5,0.9,1c0,0.6-0.5,1.2-1.4,1.2c-0.4,0-0.8-0.1-1-0.3L589,281z"/>
			<path class="st3" d="M592,281.6v-0.3l0.4-0.4c1-1,1.5-1.5,1.5-2c0-0.4-0.2-0.8-0.8-0.8c-0.3,0-0.7,0.2-0.8,0.3l-0.2-0.4
				c0.3-0.2,0.7-0.4,1.1-0.4c0.8,0,1.2,0.6,1.2,1.1c0,0.7-0.5,1.3-1.3,2.1l-0.3,0.3v0h1.8v0.4H592z"/>
			<path class="st3" d="M596.5,279.5c0-0.3,0-0.5,0-0.8h0.5l0,0.5h0c0.2-0.3,0.4-0.5,0.9-0.5c0.4,0,0.7,0.2,0.8,0.6h0
				c0.1-0.2,0.2-0.3,0.3-0.4c0.2-0.1,0.4-0.2,0.6-0.2c0.4,0,1,0.2,1,1.3v1.7h-0.5V280c0-0.6-0.2-0.9-0.6-0.9c-0.3,0-0.5,0.2-0.6,0.5
				c0,0.1,0,0.2,0,0.3v1.8h-0.5v-1.7c0-0.5-0.2-0.8-0.6-0.8c-0.3,0-0.6,0.3-0.7,0.5c0,0.1,0,0.2,0,0.3v1.8h-0.5L596.5,279.5
				L596.5,279.5z"/>
			<path class="st3" d="M601.5,279.5c0-0.3,0-0.5,0-0.8h0.5l0,0.5h0c0.2-0.3,0.4-0.5,0.9-0.5c0.4,0,0.7,0.2,0.8,0.6h0
				c0.1-0.2,0.2-0.3,0.3-0.4c0.2-0.1,0.4-0.2,0.6-0.2c0.4,0,1,0.2,1,1.3v1.7h-0.5V280c0-0.6-0.2-0.9-0.6-0.9c-0.3,0-0.5,0.2-0.6,0.5
				c0,0.1,0,0.2,0,0.3v1.8h-0.5v-1.7c0-0.5-0.2-0.8-0.6-0.8c-0.3,0-0.6,0.3-0.7,0.5c0,0.1,0,0.2,0,0.3v1.8h-0.5L601.5,279.5
				L601.5,279.5z"/>
			<path class="st3" d="M608.9,277.5c-0.4,0.6-0.8,1.4-0.8,2.5c0,1.1,0.3,1.8,0.8,2.4h-0.4c-0.4-0.5-0.8-1.3-0.8-2.4
				c0-1.2,0.4-2,0.8-2.5H608.9z"/>
			<path class="st3" d="M611.9,279.6c0,1.3-0.5,2.1-1.3,2.1c-0.8,0-1.3-0.7-1.3-2c0-1.3,0.6-2,1.4-2
				C611.4,277.7,611.9,278.4,611.9,279.6z M609.8,279.7c0,1,0.3,1.6,0.8,1.6c0.5,0,0.8-0.6,0.8-1.6c0-1-0.2-1.6-0.8-1.6
				C610.1,278.1,609.8,278.6,609.8,279.7z"/>
			<path class="st3" d="M612.4,281.3c0-0.2,0.2-0.4,0.4-0.4s0.3,0.2,0.3,0.4s-0.1,0.4-0.4,0.4C612.6,281.7,612.4,281.5,612.4,281.3z
				"/>
			<path class="st3" d="M613.6,280.6c0-0.5,0.3-0.8,0.8-1l0,0c-0.4-0.2-0.6-0.5-0.6-0.9c0-0.6,0.5-1,1.2-1c0.8,0,1.1,0.5,1.1,1
				c0,0.3-0.2,0.7-0.6,0.9v0c0.5,0.2,0.8,0.5,0.8,1c0,0.7-0.6,1.1-1.3,1.1C614.1,281.7,613.6,281.2,613.6,280.6z M615.7,280.6
				c0-0.5-0.3-0.7-0.9-0.9c-0.5,0.1-0.7,0.4-0.7,0.8c0,0.4,0.3,0.7,0.8,0.7C615.4,281.3,615.7,281,615.7,280.6z M614.2,278.7
				c0,0.4,0.3,0.6,0.7,0.7c0.3-0.1,0.6-0.4,0.6-0.7c0-0.3-0.2-0.6-0.7-0.6C614.5,278,614.2,278.3,614.2,278.7z"/>
			<path class="st3" d="M618.7,277.9c0,0.2-0.1,0.3-0.3,0.3c-0.2,0-0.3-0.1-0.3-0.3c0-0.2,0.1-0.3,0.3-0.3
				C618.6,277.6,618.7,277.7,618.7,277.9z M618.1,281.6v-2.9h0.5v2.9H618.1z"/>
			<path class="st3" d="M619.5,279.5c0-0.3,0-0.5,0-0.8h0.5l0,0.5h0c0.1-0.3,0.5-0.5,1-0.5c0.4,0,1,0.2,1,1.2v1.7h-0.5V280
				c0-0.5-0.2-0.9-0.7-0.9c-0.3,0-0.6,0.2-0.7,0.5c0,0.1,0,0.2,0,0.2v1.8h-0.5L619.5,279.5L619.5,279.5z"/>
			<path class="st3" d="M622.5,282.4c0.4-0.6,0.8-1.4,0.8-2.5c0-1.1-0.3-1.8-0.8-2.4h0.4c0.4,0.5,0.8,1.3,0.8,2.4s-0.4,1.9-0.8,2.5
				L622.5,282.4L622.5,282.4z"/>
		</g>
	</g>
</g>
<g id="guides">
</g>
</svg>
