<?xml version="1.0" encoding="utf-8"?>
<!-- Generator: Adobe Illustrator 27.9.1, SVG Export Plug-In . SVG Version: 6.00 Build 0)  -->
<svg version="1.1" baseProfile="tiny" xmlns="http://www.w3.org/2000/svg" xmlns:xlink="http://www.w3.org/1999/xlink" x="0px"
	 y="0px" viewBox="0 0 841.89 595.28" overflow="visible" xml:space="preserve">
<g id="carrier_board">
	<path id="area_00000062892251559613541560000007171532731759483065_" fill="#FFFFFF" stroke="#EC1C24" stroke-miterlimit="10" d="
		M632.46,351.5h-344.5c-6.6,0-12-5.4-12-12v-78.05c0-6.6,5.4-12,12-12h344.5c6.6,0,12,5.4,12,12v78.05
		C644.46,346.1,639.06,351.5,632.46,351.5z"/>
	
		<rect id="stemma_qt_00000106853674466640175090000016778522140111097265_" x="542.37" y="289.13" fill="none" stroke="#ED1C24" stroke-miterlimit="10" width="14.17" height="22.68"/>
</g>
<g id="featherboard">
	<g id="exterior">
		
			<rect id="area" x="324.16" y="228.47" transform="matrix(6.123234e-17 -1 1 6.123234e-17 56.0827 657.0276)" fill="#FFFFFF" stroke="#231F20" stroke-miterlimit="10" width="64.8" height="144"/>
		<g>
			<path fill="#231F20" d="M282.85,321.81h-0.32l-0.4-0.41c-0.95-1-1.45-1.45-2.04-1.45c-0.4,0-0.76,0.19-0.76,0.77
				c0,0.35,0.18,0.65,0.33,0.83l-0.37,0.17c-0.23-0.27-0.4-0.65-0.4-1.1c0-0.84,0.58-1.19,1.13-1.19c0.72,0,1.3,0.52,2.09,1.34
				l0.29,0.31h0.01v-1.75h0.44V321.81z"/>
			<path fill="#231F20" d="M282.85,318.73h-0.32l-0.4-0.41c-0.95-1-1.45-1.45-2.04-1.45c-0.4,0-0.76,0.19-0.76,0.77
				c0,0.35,0.18,0.65,0.33,0.83l-0.37,0.17c-0.23-0.27-0.4-0.65-0.4-1.1c0-0.84,0.58-1.19,1.13-1.19c0.72,0,1.3,0.52,2.09,1.34
				l0.29,0.31h0.01v-1.75h0.44V318.73z"/>
			<path fill="#231F20" d="M282.54,315.61c-0.22,0-0.38-0.15-0.38-0.36c0-0.21,0.16-0.35,0.38-0.35c0.22,0,0.38,0.14,0.38,0.36
				C282.92,315.47,282.76,315.61,282.54,315.61z"/>
			<path fill="#231F20" d="M281.86,314.46c-0.49,0-0.84-0.29-1.04-0.77l-0.02,0.01c-0.2,0.43-0.54,0.62-0.88,0.62
				c-0.62,0-1.04-0.52-1.04-1.21c0-0.75,0.47-1.13,0.96-1.13c0.33,0,0.68,0.16,0.91,0.64h0.02c0.19-0.49,0.53-0.79,1.01-0.79
				c0.68,0,1.13,0.58,1.13,1.33C282.92,313.97,282.43,314.46,281.86,314.46z M279.89,313.81c0.39,0,0.6-0.29,0.72-0.74
				c-0.11-0.34-0.35-0.59-0.71-0.59c-0.31,0-0.64,0.19-0.64,0.66C279.27,313.57,279.56,313.81,279.89,313.81z M281.84,312.36
				c-0.47,0-0.7,0.33-0.85,0.86c0.13,0.46,0.43,0.7,0.8,0.7c0.4,0.02,0.74-0.28,0.74-0.78
				C282.54,312.67,282.24,312.36,281.84,312.36z"/>
			<path fill="#231F20" d="M279.33,309.11c-0.01,0.11,0,0.25,0.02,0.4c0.14,0.83,0.74,1.26,1.39,1.35v-0.02
				c-0.25-0.19-0.45-0.51-0.45-0.94c0-0.69,0.5-1.17,1.26-1.17c0.71,0,1.37,0.49,1.37,1.3c0,0.83-0.65,1.38-1.66,1.38
				c-0.77,0-1.37-0.28-1.76-0.66c-0.32-0.32-0.52-0.76-0.58-1.25c-0.02-0.16-0.03-0.29-0.03-0.38H279.33z M281.58,309.26
				c-0.56,0-0.89,0.32-0.89,0.8c0,0.32,0.2,0.61,0.48,0.76c0.06,0.04,0.14,0.06,0.23,0.06c0.64-0.01,1.12-0.31,1.12-0.86
				C282.51,309.57,282.13,309.26,281.58,309.26z"/>
			<path fill="#231F20" d="M280.74,306.82c-0.3,0-0.55,0.01-0.79,0.02v-0.46l0.47-0.02v-0.02c-0.28-0.16-0.53-0.43-0.53-0.91
				c0-0.4,0.24-0.7,0.58-0.82v-0.01c-0.16-0.09-0.29-0.2-0.38-0.32c-0.13-0.17-0.2-0.37-0.2-0.64c0-0.38,0.25-0.95,1.26-0.95h1.71
				v0.52h-1.64c-0.56,0-0.89,0.21-0.89,0.63c0,0.3,0.22,0.53,0.48,0.62c0.07,0.02,0.17,0.04,0.26,0.04h1.79V305h-1.74
				c-0.46,0-0.8,0.2-0.8,0.61c0,0.33,0.26,0.57,0.53,0.65c0.08,0.03,0.17,0.04,0.26,0.04h1.75v0.52H280.74z"/>
			<path fill="#231F20" d="M280.74,301.81c-0.3,0-0.55,0.01-0.79,0.02v-0.46l0.47-0.02v-0.02c-0.28-0.16-0.53-0.43-0.53-0.91
				c0-0.4,0.24-0.7,0.58-0.82v-0.01c-0.16-0.09-0.29-0.2-0.38-0.32c-0.13-0.17-0.2-0.37-0.2-0.64c0-0.38,0.25-0.95,1.26-0.95h1.71
				v0.52h-1.64c-0.56,0-0.89,0.2-0.89,0.63c0,0.3,0.22,0.53,0.48,0.62c0.07,0.02,0.17,0.04,0.26,0.04h1.79V300h-1.74
				c-0.46,0-0.8,0.2-0.8,0.61c0,0.33,0.26,0.57,0.53,0.65c0.08,0.03,0.17,0.04,0.26,0.04h1.75v0.52H280.74z"/>
			<path fill="#231F20" d="M278.69,294.39c0.59,0.44,1.37,0.76,2.45,0.76c1.07,0,1.83-0.33,2.43-0.76v0.41
				c-0.5,0.38-1.27,0.79-2.43,0.79c-1.18-0.01-1.95-0.41-2.45-0.79V294.39z"/>
			<path fill="#231F20" d="M280.86,291.41c1.33,0,2.06,0.49,2.06,1.35c0,0.76-0.71,1.28-2,1.29c-1.31,0-2.03-0.56-2.03-1.36
				C278.89,291.88,279.62,291.41,280.86,291.41z M280.92,293.53c1.01,0,1.59-0.31,1.59-0.79c0-0.54-0.63-0.8-1.62-0.8
				c-0.96,0-1.59,0.25-1.59,0.79C279.3,293.19,279.86,293.53,280.92,293.53z"/>
			<path fill="#231F20" d="M282.54,290.88c-0.22,0-0.38-0.15-0.38-0.36c0-0.21,0.16-0.35,0.38-0.35c0.22,0,0.38,0.14,0.38,0.36
				C282.92,290.74,282.76,290.88,282.54,290.88z"/>
			<path fill="#231F20" d="M282.48,289.38c0.01-0.11,0-0.25-0.02-0.43c-0.04-0.31-0.17-0.59-0.38-0.82
				c-0.23-0.26-0.58-0.44-1.04-0.52v0.02c0.26,0.22,0.42,0.53,0.42,0.92c0,0.7-0.53,1.15-1.19,1.15c-0.74,0-1.39-0.53-1.39-1.33
				s0.65-1.29,1.64-1.29c0.86,0,1.46,0.29,1.83,0.67c0.29,0.3,0.47,0.71,0.52,1.13c0.03,0.19,0.04,0.36,0.03,0.49H282.48z
				 M280.24,289.18c0.49,0,0.83-0.29,0.83-0.75c0-0.35-0.17-0.63-0.41-0.77c-0.05-0.03-0.11-0.05-0.19-0.05
				c-0.67,0-1.18,0.25-1.18,0.8C279.29,288.87,279.69,289.18,280.24,289.18z"/>
			<path fill="#231F20" d="M279.14,284.58c0.18-0.01,0.32,0.13,0.32,0.34c0,0.19-0.14,0.32-0.32,0.32c-0.19,0-0.33-0.14-0.33-0.33
				C278.81,284.7,278.95,284.58,279.14,284.58z M282.85,285.16h-2.9v-0.53h2.9V285.16z"/>
			<path fill="#231F20" d="M280.74,283.76c-0.3,0-0.55,0.01-0.79,0.02v-0.47l0.48-0.03v-0.01c-0.28-0.14-0.55-0.48-0.55-0.96
				c0-0.4,0.24-1.03,1.24-1.03h1.73v0.53h-1.67c-0.47,0-0.86,0.17-0.86,0.67c0,0.35,0.25,0.62,0.54,0.71
				c0.07,0.02,0.16,0.04,0.25,0.04h1.75v0.53H280.74z"/>
			<path fill="#231F20" d="M283.58,280.75c-0.59-0.43-1.37-0.76-2.45-0.76c-1.07,0-1.84,0.32-2.43,0.76v-0.41
				c0.49-0.38,1.26-0.79,2.44-0.79c1.18,0,1.94,0.4,2.45,0.79V280.75z"/>
		</g>
		<g>
			<path fill="#231F20" d="M339.76,263.56h-1.49l-0.15,1c0.09-0.01,0.17-0.02,0.32-0.02c0.3,0,0.6,0.07,0.84,0.21
				c0.31,0.17,0.56,0.51,0.56,1c0,0.76-0.61,1.33-1.45,1.33c-0.43,0-0.79-0.12-0.97-0.24l0.13-0.4c0.16,0.1,0.48,0.22,0.83,0.22
				c0.5,0,0.92-0.32,0.92-0.85c-0.01-0.5-0.34-0.86-1.12-0.86c-0.22,0-0.4,0.02-0.54,0.04l0.25-1.87h1.87V263.56z"/>
			<path fill="#231F20" d="M343.1,265.03c0,1.33-0.49,2.06-1.35,2.06c-0.76,0-1.28-0.71-1.29-2c0-1.31,0.56-2.03,1.36-2.03
				C342.63,263.05,343.1,263.79,343.1,265.03z M340.98,265.09c0,1.01,0.31,1.59,0.79,1.59c0.54,0,0.8-0.63,0.8-1.62
				c0-0.96-0.25-1.59-0.79-1.59C341.32,263.46,340.98,264.03,340.98,265.09z"/>
			<path fill="#231F20" d="M343.63,266.71c0-0.22,0.15-0.38,0.36-0.38c0.21,0,0.35,0.16,0.35,0.38c0,0.22-0.14,0.38-0.36,0.38
				C343.77,267.08,343.63,266.92,343.63,266.71z"/>
			<path fill="#231F20" d="M344.78,266.03c0-0.49,0.29-0.84,0.77-1.04l-0.01-0.02c-0.43-0.2-0.62-0.54-0.62-0.88
				c0-0.62,0.52-1.04,1.21-1.04c0.76,0,1.13,0.47,1.13,0.96c0,0.33-0.16,0.68-0.64,0.91v0.02c0.49,0.19,0.79,0.53,0.79,1.01
				c0,0.68-0.58,1.13-1.33,1.13C345.27,267.08,344.78,266.6,344.78,266.03z M346.88,266c0-0.47-0.33-0.7-0.86-0.85
				c-0.46,0.13-0.7,0.43-0.7,0.8c-0.02,0.4,0.28,0.74,0.78,0.74C346.57,266.7,346.88,266.41,346.88,266z M345.43,264.06
				c0,0.39,0.29,0.6,0.74,0.72c0.34-0.11,0.59-0.35,0.59-0.71c0-0.31-0.19-0.64-0.66-0.64
				C345.67,263.43,345.43,263.72,345.43,264.06z"/>
			<path fill="#231F20" d="M349.35,264.9c0-0.3-0.01-0.55-0.02-0.79h0.46l0.02,0.47h0.02c0.16-0.28,0.43-0.53,0.91-0.53
				c0.4,0,0.7,0.24,0.82,0.58h0.01c0.09-0.16,0.2-0.29,0.32-0.38c0.17-0.13,0.37-0.2,0.64-0.2c0.38,0,0.95,0.25,0.95,1.26v1.71
				h-0.52v-1.64c0-0.56-0.2-0.89-0.63-0.89c-0.3,0-0.53,0.22-0.62,0.48c-0.02,0.07-0.04,0.17-0.04,0.26v1.79h-0.52v-1.74
				c0-0.46-0.2-0.8-0.61-0.8c-0.33,0-0.57,0.26-0.65,0.53c-0.03,0.08-0.04,0.17-0.04,0.26v1.75h-0.52V264.9z"/>
			<path fill="#231F20" d="M354.35,264.9c0-0.3-0.01-0.55-0.02-0.79h0.46l0.02,0.47h0.02c0.16-0.28,0.43-0.53,0.91-0.53
				c0.4,0,0.7,0.24,0.82,0.58h0.01c0.09-0.16,0.2-0.29,0.32-0.38c0.17-0.13,0.37-0.2,0.64-0.2c0.38,0,0.95,0.25,0.95,1.26v1.71
				h-0.52v-1.64c0-0.56-0.2-0.89-0.63-0.89c-0.3,0-0.53,0.22-0.62,0.48c-0.02,0.07-0.04,0.17-0.04,0.26v1.79h-0.52v-1.74
				c0-0.46-0.2-0.8-0.61-0.8c-0.33,0-0.57,0.26-0.65,0.53c-0.03,0.08-0.04,0.17-0.04,0.26v1.75h-0.52V264.9z"/>
			<path fill="#231F20" d="M361.77,262.86c-0.44,0.59-0.76,1.37-0.76,2.45c0,1.07,0.33,1.83,0.76,2.43h-0.41
				c-0.38-0.5-0.79-1.27-0.79-2.43c0.01-1.18,0.41-1.95,0.79-2.45H361.77z"/>
			<path fill="#231F20" d="M362.16,267.02v-0.32l0.41-0.4c1-0.95,1.45-1.45,1.45-2.04c0-0.4-0.19-0.76-0.77-0.76
				c-0.35,0-0.65,0.18-0.83,0.33l-0.17-0.37c0.27-0.23,0.65-0.4,1.1-0.4c0.84,0,1.19,0.58,1.19,1.13c0,0.72-0.52,1.3-1.34,2.09
				l-0.31,0.29v0.01h1.75v0.44H362.16z"/>
			<path fill="#231F20" d="M365.28,266.71c0-0.22,0.15-0.38,0.36-0.38c0.21,0,0.35,0.16,0.35,0.38c0,0.22-0.14,0.38-0.36,0.38
				C365.43,267.08,365.28,266.92,365.28,266.71z"/>
			<path fill="#231F20" d="M369.07,265.03c0,1.33-0.49,2.06-1.35,2.06c-0.76,0-1.28-0.71-1.29-2c0-1.31,0.56-2.03,1.36-2.03
				C368.61,263.05,369.07,263.79,369.07,265.03z M366.96,265.09c0,1.01,0.31,1.59,0.79,1.59c0.54,0,0.8-0.63,0.8-1.62
				c0-0.96-0.25-1.59-0.79-1.59C367.29,263.46,366.96,264.03,366.96,265.09z"/>
			<path fill="#231F20" d="M371.59,263.3c0.01,0.18-0.13,0.32-0.34,0.32c-0.19,0-0.32-0.14-0.32-0.32c0-0.19,0.14-0.33,0.33-0.33
				C371.46,262.97,371.59,263.11,371.59,263.3z M371,267.02v-2.9h0.53v2.9H371z"/>
			<path fill="#231F20" d="M372.4,264.9c0-0.3-0.01-0.55-0.02-0.79h0.47l0.03,0.48h0.01c0.14-0.28,0.48-0.55,0.96-0.55
				c0.4,0,1.03,0.24,1.03,1.24v1.73h-0.53v-1.67c0-0.47-0.17-0.86-0.67-0.86c-0.35,0-0.62,0.25-0.71,0.54
				c-0.02,0.07-0.04,0.16-0.04,0.25v1.75h-0.53V264.9z"/>
			<path fill="#231F20" d="M375.42,267.74c0.43-0.59,0.76-1.37,0.76-2.45c0-1.07-0.32-1.84-0.76-2.43h0.41
				c0.38,0.49,0.79,1.26,0.79,2.44c0,1.18-0.4,1.94-0.79,2.45H375.42z"/>
		</g>
	</g>
	<g id="interior">
		<rect id="stemma_qt" x="344.02" y="289.13" fill="none" stroke="#ED1C24" stroke-miterlimit="10" width="14.17" height="22.68"/>
		
			<rect id="hole_perimeter" x="291.92" y="275.27" fill="#FFFFFF" stroke="#FFF100" stroke-miterlimit="10" width="129.6" height="50.4"/>
		<g id="feather_sinks">
			<circle fill="#FFFFFF" stroke="#EC1C24" stroke-miterlimit="10" cx="291.92" cy="275.27" r="3.6"/>
			<circle fill="#FFFFFF" stroke="#EC1C24" stroke-miterlimit="10" cx="421.52" cy="325.67" r="3.6"/>
			<circle fill="#FFFFFF" stroke="#EC1C24" stroke-miterlimit="10" cx="291.92" cy="325.67" r="3.6"/>
			<circle fill="#FFFFFF" stroke="#EC1C24" stroke-miterlimit="10" cx="421.52" cy="275.27" r="3.6"/>
		</g>
		<g>
			<path fill="#231F20" d="M298.1,319.19v1.69h1.96v-1.69h0.53v4.04h-0.53v-1.9h-1.96v1.9h-0.52v-4.04H298.1z"/>
			<path fill="#231F20" d="M304.1,321.76c0,1.07-0.74,1.54-1.45,1.54c-0.79,0-1.39-0.58-1.39-1.49c0-0.97,0.64-1.54,1.44-1.54
				C303.53,320.26,304.1,320.87,304.1,321.76z M301.79,321.79c0,0.64,0.37,1.12,0.88,1.12c0.5,0,0.88-0.47,0.88-1.13
				c0-0.49-0.25-1.12-0.87-1.12C302.06,320.66,301.79,321.24,301.79,321.79z"/>
			<path fill="#231F20" d="M304.76,318.97h0.53v4.26h-0.53V318.97z"/>
			<path fill="#231F20" d="M306.47,321.88c0.01,0.71,0.47,1.01,1,1.01c0.38,0,0.61-0.07,0.8-0.15l0.09,0.38
				c-0.19,0.08-0.5,0.18-0.97,0.18c-0.89,0-1.43-0.59-1.43-1.46c0-0.88,0.52-1.57,1.36-1.57c0.95,0,1.2,0.83,1.2,1.37
				c0,0.11-0.01,0.19-0.02,0.25H306.47z M308.02,321.5c0.01-0.34-0.14-0.86-0.73-0.86c-0.53,0-0.77,0.49-0.81,0.86H308.02z"/>
			<path fill="#231F20" d="M310.48,319.24c0.32-0.05,0.7-0.08,1.11-0.08c0.75,0,1.28,0.17,1.64,0.5c0.36,0.33,0.57,0.8,0.57,1.45
				c0,0.66-0.2,1.2-0.58,1.57c-0.38,0.38-1,0.58-1.79,0.58c-0.37,0-0.68-0.02-0.95-0.05V319.24z M311,322.82
				c0.13,0.02,0.32,0.03,0.53,0.03c1.12,0,1.72-0.62,1.72-1.71c0.01-0.95-0.53-1.56-1.64-1.56c-0.27,0-0.47,0.02-0.61,0.05V322.82z"
				/>
			<path fill="#231F20" d="M315.53,321.21v-0.36h3.09v0.36H315.53z M315.53,322.39v-0.36h3.09v0.36H315.53z"/>
			<path fill="#231F20" d="M320.41,323.23v-0.32l0.41-0.4c1-0.95,1.45-1.45,1.45-2.04c0-0.4-0.19-0.76-0.77-0.76
				c-0.35,0-0.65,0.18-0.83,0.33l-0.17-0.37c0.27-0.23,0.65-0.4,1.1-0.4c0.84,0,1.19,0.58,1.19,1.13c0,0.72-0.52,1.3-1.34,2.09
				l-0.31,0.29v0.01h1.75v0.44H320.41z"/>
			<path fill="#231F20" d="M325.81,319.78h-1.49l-0.15,1c0.09-0.01,0.17-0.02,0.32-0.02c0.3,0,0.6,0.07,0.84,0.21
				c0.31,0.17,0.56,0.51,0.56,1c0,0.76-0.61,1.33-1.45,1.33c-0.43,0-0.79-0.12-0.97-0.24l0.13-0.4c0.16,0.1,0.48,0.22,0.83,0.22
				c0.5,0,0.92-0.32,0.92-0.85c-0.01-0.5-0.34-0.86-1.12-0.86c-0.22,0-0.4,0.02-0.54,0.04l0.25-1.87h1.87V319.78z"/>
			<path fill="#231F20" d="M326.6,322.92c0-0.22,0.15-0.38,0.36-0.38c0.21,0,0.35,0.16,0.35,0.38c0,0.22-0.14,0.38-0.36,0.38
				C326.75,323.3,326.6,323.14,326.6,322.92z"/>
			<path fill="#231F20" d="M329.43,323.23v-1.06h-1.81v-0.35l1.74-2.49h0.57v2.42h0.55v0.41h-0.55v1.06H329.43z M329.43,321.76v-1.3
				c0-0.2,0.01-0.41,0.02-0.61h-0.02c-0.12,0.23-0.22,0.4-0.32,0.58l-0.95,1.33v0.01H329.43z"/>
			<path fill="#231F20" d="M331.05,321.12c0-0.3-0.01-0.55-0.02-0.79h0.46l0.02,0.47h0.02c0.16-0.28,0.43-0.53,0.91-0.53
				c0.4,0,0.7,0.24,0.82,0.58h0.01c0.09-0.16,0.2-0.29,0.32-0.38c0.17-0.13,0.37-0.2,0.64-0.2c0.38,0,0.95,0.25,0.95,1.26v1.71
				h-0.52v-1.64c0-0.56-0.2-0.89-0.63-0.89c-0.3,0-0.53,0.22-0.62,0.48c-0.02,0.07-0.04,0.17-0.04,0.26v1.79h-0.52v-1.74
				c0-0.46-0.2-0.8-0.61-0.8c-0.33,0-0.57,0.26-0.65,0.53c-0.03,0.08-0.04,0.17-0.04,0.26v1.75h-0.52V321.12z"/>
			<path fill="#231F20" d="M336.05,321.12c0-0.3-0.01-0.55-0.02-0.79h0.46l0.02,0.47h0.02c0.16-0.28,0.43-0.53,0.91-0.53
				c0.4,0,0.7,0.24,0.82,0.58h0.01c0.09-0.16,0.2-0.29,0.32-0.38c0.17-0.13,0.37-0.2,0.64-0.2c0.38,0,0.95,0.25,0.95,1.26v1.71
				h-0.52v-1.64c0-0.56-0.2-0.89-0.63-0.89c-0.3,0-0.53,0.22-0.62,0.48c-0.02,0.07-0.04,0.17-0.04,0.26v1.79h-0.52v-1.74
				c0-0.46-0.2-0.8-0.61-0.8c-0.33,0-0.57,0.26-0.65,0.53c-0.03,0.08-0.04,0.17-0.04,0.26v1.75h-0.52V321.12z"/>
			<path fill="#231F20" d="M343.47,319.07c-0.44,0.59-0.76,1.37-0.76,2.45c0,1.07,0.33,1.83,0.76,2.43h-0.41
				c-0.38-0.5-0.79-1.27-0.79-2.43c0.01-1.18,0.41-1.95,0.79-2.45H343.47z"/>
			<path fill="#231F20" d="M346.46,321.24c0,1.33-0.49,2.06-1.35,2.06c-0.76,0-1.28-0.71-1.29-2c0-1.31,0.56-2.03,1.36-2.03
				C345.99,319.27,346.46,320,346.46,321.24z M344.34,321.3c0,1.01,0.31,1.59,0.79,1.59c0.54,0,0.8-0.63,0.8-1.62
				c0-0.96-0.25-1.59-0.79-1.59C344.67,319.68,344.34,320.24,344.34,321.3z"/>
			<path fill="#231F20" d="M346.99,322.92c0-0.22,0.15-0.38,0.36-0.38c0.21,0,0.35,0.16,0.35,0.38c0,0.22-0.14,0.38-0.36,0.38
				C347.13,323.3,346.99,323.14,346.99,322.92z"/>
			<path fill="#231F20" d="M349.33,319.83h-0.01l-0.68,0.37l-0.1-0.4l0.85-0.46h0.45v3.9h-0.51V319.83z"/>
			<path fill="#231F20" d="M353.29,319.51c0.01,0.18-0.13,0.32-0.34,0.32c-0.19,0-0.32-0.14-0.32-0.32c0-0.19,0.14-0.33,0.33-0.33
				C353.16,319.18,353.29,319.33,353.29,319.51z M352.7,323.23v-2.9h0.53v2.9H352.7z"/>
			<path fill="#231F20" d="M354.11,321.12c0-0.3-0.01-0.55-0.02-0.79h0.47l0.03,0.48h0.01c0.14-0.28,0.48-0.55,0.96-0.55
				c0.4,0,1.03,0.24,1.03,1.24v1.73h-0.53v-1.67c0-0.47-0.17-0.86-0.67-0.86c-0.35,0-0.62,0.25-0.71,0.54
				c-0.02,0.07-0.04,0.16-0.04,0.25v1.75h-0.53V321.12z"/>
			<path fill="#231F20" d="M357.12,323.96c0.43-0.59,0.76-1.37,0.76-2.45c0-1.07-0.32-1.84-0.76-2.43h0.41
				c0.38,0.49,0.79,1.26,0.79,2.44c0,1.18-0.4,1.94-0.79,2.45H357.12z"/>
		</g>
		<g>
			<path fill="#231F20" d="M339.04,281.64v-1.06h-1.81v-0.35l1.74-2.49h0.57v2.42h0.55v0.41h-0.55v1.06H339.04z M339.04,280.16v-1.3
				c0-0.2,0.01-0.41,0.02-0.61h-0.02c-0.12,0.23-0.22,0.4-0.32,0.58l-0.95,1.33v0.01H339.04z"/>
			<path fill="#231F20" d="M342.82,278.19h-1.49l-0.15,1c0.09-0.01,0.17-0.02,0.32-0.02c0.3,0,0.6,0.07,0.84,0.21
				c0.31,0.17,0.56,0.51,0.56,1c0,0.76-0.61,1.33-1.45,1.33c-0.43,0-0.79-0.12-0.97-0.24l0.13-0.4c0.16,0.1,0.48,0.22,0.83,0.22
				c0.5,0,0.92-0.32,0.92-0.85c-0.01-0.5-0.34-0.86-1.12-0.86c-0.22,0-0.4,0.02-0.54,0.04l0.25-1.87h1.87V278.19z"/>
			<path fill="#231F20" d="M343.61,281.33c0-0.22,0.15-0.38,0.36-0.38c0.21,0,0.35,0.16,0.35,0.38c0,0.22-0.14,0.38-0.36,0.38
				C343.75,281.71,343.61,281.54,343.61,281.33z"/>
			<path fill="#231F20" d="M347.34,277.74v0.35l-1.7,3.55h-0.55l1.69-3.45v-0.01h-1.91v-0.44H347.34z"/>
			<path fill="#231F20" d="M349.52,281.64v-1.06h-1.81v-0.35l1.74-2.49h0.57v2.42h0.55v0.41h-0.55v1.06H349.52z M349.52,280.16v-1.3
				c0-0.2,0.01-0.41,0.02-0.61h-0.02c-0.12,0.23-0.22,0.4-0.32,0.58l-0.95,1.33v0.01H349.52z"/>
			<path fill="#231F20" d="M352.41,279.52c0-0.3-0.01-0.55-0.02-0.79h0.46l0.02,0.47h0.02c0.16-0.28,0.43-0.53,0.91-0.53
				c0.4,0,0.7,0.24,0.82,0.58h0.01c0.09-0.16,0.2-0.29,0.32-0.38c0.17-0.13,0.37-0.2,0.64-0.2c0.38,0,0.95,0.25,0.95,1.26v1.71
				h-0.52V280c0-0.56-0.2-0.89-0.63-0.89c-0.3,0-0.53,0.22-0.62,0.48c-0.02,0.07-0.04,0.17-0.04,0.26v1.79h-0.52v-1.74
				c0-0.46-0.2-0.8-0.61-0.8c-0.33,0-0.57,0.26-0.65,0.53c-0.03,0.08-0.04,0.17-0.04,0.26v1.75h-0.52V279.52z"/>
			<path fill="#231F20" d="M357.41,279.52c0-0.3-0.01-0.55-0.02-0.79h0.46l0.02,0.47h0.02c0.16-0.28,0.43-0.53,0.91-0.53
				c0.4,0,0.7,0.24,0.82,0.58h0.01c0.09-0.16,0.2-0.29,0.32-0.38c0.17-0.13,0.37-0.2,0.64-0.2c0.38,0,0.95,0.25,0.95,1.26v1.71
				h-0.52V280c0-0.56-0.2-0.89-0.63-0.89c-0.3,0-0.53,0.22-0.62,0.48c-0.02,0.07-0.04,0.17-0.04,0.26v1.79h-0.52v-1.74
				c0-0.46-0.2-0.8-0.61-0.8c-0.33,0-0.57,0.26-0.65,0.53c-0.03,0.08-0.04,0.17-0.04,0.26v1.75h-0.52V279.52z"/>
			<path fill="#231F20" d="M364.83,277.48c-0.44,0.59-0.76,1.37-0.76,2.45c0,1.07,0.33,1.83,0.76,2.43h-0.41
				c-0.38-0.5-0.79-1.27-0.79-2.43c0.01-1.18,0.41-1.95,0.79-2.45H364.83z"/>
			<path fill="#231F20" d="M366.37,278.23h-0.01l-0.68,0.37l-0.1-0.4l0.85-0.46h0.45v3.9h-0.51V278.23z"/>
			<path fill="#231F20" d="M368.34,281.33c0-0.22,0.15-0.38,0.36-0.38c0.21,0,0.35,0.16,0.35,0.38c0,0.22-0.14,0.38-0.36,0.38
				C368.49,281.71,368.34,281.54,368.34,281.33z"/>
			<path fill="#231F20" d="M369.49,280.65c0-0.49,0.29-0.84,0.77-1.04l-0.01-0.02c-0.43-0.2-0.62-0.54-0.62-0.88
				c0-0.62,0.52-1.04,1.21-1.04c0.76,0,1.13,0.47,1.13,0.96c0,0.33-0.16,0.68-0.64,0.91v0.02c0.49,0.19,0.79,0.53,0.79,1.01
				c0,0.68-0.58,1.13-1.33,1.13C369.99,281.71,369.49,281.22,369.49,280.65z M371.59,280.63c0-0.47-0.33-0.7-0.86-0.85
				c-0.46,0.13-0.7,0.43-0.7,0.8c-0.02,0.4,0.28,0.74,0.78,0.74C371.29,281.32,371.59,281.03,371.59,280.63z M370.14,278.68
				c0,0.39,0.29,0.6,0.74,0.72c0.34-0.11,0.59-0.35,0.59-0.71c0-0.31-0.19-0.64-0.66-0.64
				C370.38,278.05,370.14,278.34,370.14,278.68z"/>
			<path fill="#231F20" d="M374.65,277.92c0.01,0.18-0.13,0.32-0.34,0.32c-0.19,0-0.32-0.14-0.32-0.32c0-0.19,0.14-0.33,0.33-0.33
				C374.52,277.59,374.65,277.74,374.65,277.92z M374.06,281.64v-2.9h0.53v2.9H374.06z"/>
			<path fill="#231F20" d="M375.46,279.52c0-0.3-0.01-0.55-0.02-0.79h0.47l0.03,0.48h0.01c0.14-0.28,0.48-0.55,0.96-0.55
				c0.4,0,1.03,0.24,1.03,1.24v1.73h-0.53v-1.67c0-0.47-0.17-0.86-0.67-0.86c-0.35,0-0.62,0.25-0.71,0.54
				c-0.02,0.07-0.04,0.16-0.04,0.25v1.75h-0.53V279.52z"/>
			<path fill="#231F20" d="M378.48,282.36c0.43-0.59,0.76-1.37,0.76-2.45c0-1.07-0.32-1.84-0.76-2.43h0.41
				c0.38,0.49,0.79,1.26,0.79,2.44c0,1.18-0.4,1.94-0.79,2.45H378.48z"/>
		</g>
		<g>
			<path fill="#231F20" d="M416.11,320.21v0.01l0.37,0.68l-0.4,0.1l-0.46-0.85v-0.45h3.9v0.51H416.11z"/>
			<path fill="#231F20" d="M415.62,315.75h0.35l3.55,1.7v0.55l-3.45-1.69h-0.01v1.91h-0.44V315.75z"/>
			<path fill="#231F20" d="M419.21,315.16c-0.22,0-0.38-0.15-0.38-0.36s0.16-0.35,0.38-0.35c0.22,0,0.38,0.14,0.38,0.36
				C419.58,315.01,419.42,315.16,419.21,315.16z"/>
			<path fill="#231F20" d="M415.62,311.43h0.35l3.55,1.7v0.55l-3.45-1.69h-0.01v1.91h-0.44V311.43z"/>
			<path fill="#231F20" d="M418.53,310.93c-0.49,0-0.84-0.29-1.04-0.77l-0.02,0.01c-0.2,0.43-0.54,0.62-0.88,0.62
				c-0.62,0-1.04-0.52-1.04-1.21c0-0.75,0.47-1.13,0.96-1.13c0.33,0,0.68,0.16,0.91,0.64h0.02c0.19-0.49,0.53-0.79,1.01-0.79
				c0.68,0,1.13,0.58,1.13,1.33C419.58,310.43,419.1,310.93,418.53,310.93z M416.55,310.28c0.39,0,0.6-0.29,0.72-0.74
				c-0.11-0.34-0.35-0.59-0.71-0.59c-0.31,0-0.64,0.19-0.64,0.66C415.93,310.04,416.22,310.28,416.55,310.28z M418.5,308.83
				c-0.47,0-0.7,0.33-0.85,0.86c0.13,0.46,0.43,0.7,0.8,0.7c0.4,0.02,0.74-0.28,0.74-0.78C419.2,309.13,418.91,308.83,418.5,308.83z
				"/>
			<path fill="#231F20" d="M417.4,307.63c-0.3,0-0.55,0.01-0.79,0.02v-0.46l0.47-0.02v-0.02c-0.28-0.16-0.53-0.43-0.53-0.91
				c0-0.39,0.24-0.7,0.58-0.82v-0.01c-0.16-0.09-0.29-0.2-0.38-0.32c-0.13-0.17-0.2-0.37-0.2-0.64c0-0.38,0.25-0.95,1.26-0.95h1.71
				V304h-1.64c-0.56,0-0.89,0.2-0.89,0.63c0,0.3,0.22,0.53,0.48,0.62c0.07,0.02,0.17,0.04,0.26,0.04h1.79v0.52h-1.74
				c-0.46,0-0.8,0.21-0.8,0.61c0,0.33,0.26,0.57,0.53,0.65c0.08,0.03,0.17,0.04,0.26,0.04h1.75v0.52H417.4z"/>
			<path fill="#231F20" d="M417.4,302.63c-0.3,0-0.55,0.01-0.79,0.02v-0.46l0.47-0.02v-0.02c-0.28-0.16-0.53-0.43-0.53-0.91
				c0-0.39,0.24-0.7,0.58-0.82v-0.01c-0.16-0.09-0.29-0.2-0.38-0.32c-0.13-0.17-0.2-0.37-0.2-0.64c0-0.38,0.25-0.95,1.26-0.95h1.71
				V299h-1.64c-0.56,0-0.89,0.2-0.89,0.63c0,0.3,0.22,0.53,0.48,0.62c0.07,0.02,0.17,0.04,0.26,0.04h1.79v0.52h-1.74
				c-0.46,0-0.8,0.21-0.8,0.61c0,0.33,0.26,0.57,0.53,0.65c0.08,0.03,0.17,0.04,0.26,0.04h1.75v0.52H417.4z"/>
			<path fill="#231F20" d="M415.36,295.21c0.59,0.44,1.37,0.76,2.45,0.76c1.07,0,1.83-0.33,2.43-0.76v0.41
				c-0.5,0.38-1.27,0.79-2.43,0.79c-1.18-0.01-1.95-0.41-2.45-0.79V295.21z"/>
			<path fill="#231F20" d="M417.53,292.23c1.33,0,2.06,0.49,2.06,1.35c0,0.76-0.71,1.28-2,1.29c-1.31,0-2.03-0.56-2.03-1.36
				C415.55,292.69,416.28,292.23,417.53,292.23z M417.59,294.34c1.01,0,1.59-0.31,1.59-0.79c0-0.54-0.63-0.8-1.62-0.8
				c-0.96,0-1.59,0.25-1.59,0.79C415.96,294.01,416.52,294.34,417.59,294.34z"/>
			<path fill="#231F20" d="M419.21,291.7c-0.22,0-0.38-0.15-0.38-0.36c0-0.21,0.16-0.35,0.38-0.35c0.22,0,0.38,0.14,0.38,0.36
				C419.58,291.55,419.42,291.7,419.21,291.7z"/>
			<path fill="#231F20" d="M415.62,287.97h0.35l3.55,1.7v0.55l-3.45-1.69h-0.01v1.91h-0.44V287.97z"/>
			<path fill="#231F20" d="M415.8,286.66c0.18-0.01,0.32,0.13,0.32,0.34c0,0.19-0.14,0.32-0.32,0.32c-0.19,0-0.33-0.14-0.33-0.33
				C415.47,286.79,415.61,286.66,415.8,286.66z M419.52,287.25h-2.9v-0.53h2.9V287.25z"/>
			<path fill="#231F20" d="M417.4,285.85c-0.3,0-0.55,0.01-0.79,0.02v-0.47l0.48-0.03v-0.01c-0.28-0.14-0.55-0.48-0.55-0.96
				c0-0.4,0.24-1.03,1.24-1.03h1.73v0.53h-1.67c-0.47,0-0.86,0.17-0.86,0.67c0,0.35,0.25,0.62,0.54,0.71
				c0.07,0.02,0.16,0.04,0.25,0.04h1.75v0.53H417.4z"/>
			<path fill="#231F20" d="M420.24,282.83c-0.59-0.43-1.37-0.76-2.45-0.76c-1.07,0-1.84,0.32-2.43,0.76v-0.41
				c0.49-0.38,1.26-0.79,2.44-0.79c1.18,0,1.94,0.4,2.45,0.79V282.83z"/>
		</g>
	</g>
</g>
<g id="battery">
	
		<rect id="area_00000177466264201862396170000012888078070569793183_" x="430.14" y="257.95" fill="none" stroke="#FFF200" stroke-miterlimit="10" width="107.72" height="85.04"/>
</g>
<g id="scd40">
	<g id="exterior_00000065047165102339118250000015719290774252357531_">
		<g>
			<path fill="#231F20" d="M583.78,267.02v-0.32l0.41-0.4c1-0.95,1.45-1.45,1.45-2.04c0-0.4-0.19-0.76-0.77-0.76
				c-0.35,0-0.65,0.18-0.83,0.33l-0.17-0.37c0.27-0.23,0.65-0.4,1.1-0.4c0.84,0,1.19,0.58,1.19,1.13c0,0.72-0.52,1.3-1.34,2.09
				l-0.31,0.29v0.01h1.75v0.44H583.78z"/>
			<path fill="#231F20" d="M589.18,263.56h-1.49l-0.15,1c0.09-0.01,0.17-0.02,0.32-0.02c0.3,0,0.6,0.07,0.84,0.21
				c0.31,0.17,0.56,0.51,0.56,1c0,0.76-0.61,1.33-1.45,1.33c-0.43,0-0.79-0.12-0.97-0.24l0.13-0.4c0.16,0.1,0.48,0.22,0.83,0.22
				c0.5,0,0.92-0.32,0.92-0.85c-0.01-0.5-0.34-0.86-1.12-0.86c-0.22,0-0.4,0.02-0.54,0.04l0.25-1.87h1.87V263.56z"/>
			<path fill="#231F20" d="M589.97,266.71c0-0.22,0.15-0.38,0.36-0.38s0.35,0.16,0.35,0.38c0,0.22-0.14,0.38-0.36,0.38
				C590.12,267.08,589.97,266.92,589.97,266.71z"/>
			<path fill="#231F20" d="M591.48,266.65c0.11,0.01,0.25,0,0.43-0.02c0.31-0.04,0.59-0.17,0.82-0.38c0.26-0.23,0.44-0.58,0.52-1.04
				h-0.02c-0.22,0.26-0.53,0.42-0.92,0.42c-0.7,0-1.15-0.53-1.15-1.19c0-0.74,0.53-1.39,1.33-1.39c0.8,0,1.29,0.65,1.29,1.64
				c0,0.86-0.29,1.46-0.67,1.83c-0.3,0.29-0.71,0.47-1.13,0.52c-0.19,0.03-0.36,0.04-0.49,0.03V266.65z M591.67,264.4
				c0,0.49,0.29,0.83,0.75,0.83c0.35,0,0.63-0.17,0.77-0.41c0.03-0.05,0.05-0.11,0.05-0.19c0-0.67-0.25-1.18-0.8-1.18
				C591.99,263.46,591.67,263.85,591.67,264.4z"/>
			<path fill="#231F20" d="M595.69,264.9c0-0.3-0.01-0.55-0.02-0.79h0.46l0.02,0.47h0.02c0.16-0.28,0.43-0.53,0.91-0.53
				c0.4,0,0.7,0.24,0.82,0.58h0.01c0.09-0.16,0.2-0.29,0.32-0.38c0.17-0.13,0.37-0.2,0.64-0.2c0.38,0,0.95,0.25,0.95,1.26v1.71
				h-0.52v-1.64c0-0.56-0.2-0.89-0.63-0.89c-0.3,0-0.53,0.22-0.62,0.48c-0.02,0.07-0.04,0.17-0.04,0.26v1.79h-0.52v-1.74
				c0-0.46-0.2-0.8-0.61-0.8c-0.33,0-0.57,0.26-0.65,0.53c-0.03,0.08-0.04,0.17-0.04,0.26v1.75h-0.52V264.9z"/>
			<path fill="#231F20" d="M600.7,264.9c0-0.3-0.01-0.55-0.02-0.79h0.46l0.02,0.47h0.02c0.16-0.28,0.43-0.53,0.91-0.53
				c0.4,0,0.7,0.24,0.82,0.58h0.01c0.09-0.16,0.2-0.29,0.32-0.38c0.17-0.13,0.37-0.2,0.64-0.2c0.38,0,0.95,0.25,0.95,1.26v1.71
				h-0.52v-1.64c0-0.56-0.2-0.89-0.63-0.89c-0.3,0-0.53,0.22-0.62,0.48c-0.02,0.07-0.04,0.17-0.04,0.26v1.79h-0.52v-1.74
				c0-0.46-0.2-0.8-0.61-0.8c-0.33,0-0.57,0.26-0.65,0.53c-0.03,0.08-0.04,0.17-0.04,0.26v1.75h-0.52V264.9z"/>
			<path fill="#231F20" d="M608.12,262.86c-0.44,0.59-0.76,1.37-0.76,2.45c0,1.07,0.33,1.83,0.76,2.43h-0.41
				c-0.38-0.5-0.79-1.27-0.79-2.43c0.01-1.18,0.41-1.95,0.79-2.45H608.12z"/>
			<path fill="#231F20" d="M609.65,263.61h-0.01l-0.68,0.37l-0.1-0.4l0.85-0.46h0.45v3.9h-0.51V263.61z"/>
			<path fill="#231F20" d="M611.63,266.71c0-0.22,0.15-0.38,0.36-0.38c0.21,0,0.35,0.16,0.35,0.38c0,0.22-0.14,0.38-0.36,0.38
				C611.77,267.08,611.63,266.92,611.63,266.71z"/>
			<path fill="#231F20" d="M615.42,265.03c0,1.33-0.49,2.06-1.35,2.06c-0.76,0-1.28-0.71-1.29-2c0-1.31,0.56-2.03,1.36-2.03
				C614.95,263.06,615.42,263.79,615.42,265.03z M613.3,265.09c0,1.01,0.31,1.59,0.79,1.59c0.54,0,0.8-0.63,0.8-1.62
				c0-0.96-0.25-1.59-0.79-1.59C613.64,263.46,613.3,264.03,613.3,265.09z"/>
			<path fill="#231F20" d="M617.93,263.3c0.01,0.18-0.13,0.32-0.34,0.32c-0.19,0-0.32-0.14-0.32-0.32c0-0.19,0.14-0.33,0.33-0.33
				C617.81,262.97,617.93,263.12,617.93,263.3z M617.34,267.02v-2.9h0.53v2.9H617.34z"/>
			<path fill="#231F20" d="M618.75,264.9c0-0.3-0.01-0.55-0.02-0.79h0.47l0.03,0.48h0.01c0.14-0.28,0.48-0.55,0.96-0.55
				c0.4,0,1.03,0.24,1.03,1.24v1.73h-0.53v-1.67c0-0.47-0.17-0.86-0.67-0.86c-0.35,0-0.62,0.25-0.71,0.54
				c-0.02,0.07-0.04,0.16-0.04,0.25v1.75h-0.53V264.9z"/>
			<path fill="#231F20" d="M621.76,267.74c0.43-0.59,0.76-1.37,0.76-2.45c0-1.07-0.32-1.84-0.76-2.43h0.41
				c0.38,0.49,0.79,1.26,0.79,2.44c0,1.18-0.4,1.94-0.79,2.45H621.76z"/>
		</g>
		
			<rect id="area_00000169529580356692750040000010801188103347093923_" x="568.95" y="264.47" transform="matrix(6.123234e-17 -1 1 6.123234e-17 300.8808 901.8257)" fill="#FFFFFF" stroke="#231F20" stroke-miterlimit="10" width="64.8" height="72"/>
	</g>
	<g id="interior_00000132781939850181519310000014990818703101974457_">
		
			<rect id="hole_perimeter_00000155129516037897538940000013360745265126431131_" x="572.55" y="275.27" fill="#FFFFFF" stroke="#FFF100" stroke-miterlimit="10" width="57.6" height="50.4"/>
		<circle fill="#FFFFFF" stroke="#EC1C24" stroke-miterlimit="10" cx="572.55" cy="275.27" r="3.6"/>
		<circle fill="#FFFFFF" stroke="#EC1C24" stroke-miterlimit="10" cx="630.15" cy="325.67" r="3.6"/>
		<circle fill="#FFFFFF" stroke="#EC1C24" stroke-miterlimit="10" cx="572.55" cy="325.67" r="3.6"/>
		<circle fill="#FFFFFF" stroke="#EC1C24" stroke-miterlimit="10" cx="630.15" cy="275.27" r="3.6"/>
		<g>
			<path fill="#231F20" d="M581.49,281.64v-0.32l0.41-0.4c1-0.95,1.45-1.45,1.45-2.04c0-0.4-0.19-0.76-0.77-0.76
				c-0.35,0-0.65,0.18-0.83,0.33l-0.17-0.37c0.27-0.23,0.65-0.4,1.1-0.4c0.84,0,1.19,0.58,1.19,1.13c0,0.72-0.52,1.3-1.34,2.09
				l-0.31,0.29v0.01h1.75v0.44H581.49z"/>
			<path fill="#231F20" d="M587.15,279.65c0,1.33-0.49,2.06-1.36,2.06c-0.76,0-1.28-0.71-1.29-2c0-1.31,0.56-2.03,1.36-2.03
				C586.69,277.68,587.15,278.41,587.15,279.65z M585.04,279.71c0,1.01,0.31,1.59,0.79,1.59c0.54,0,0.8-0.63,0.8-1.62
				c0-0.96-0.25-1.59-0.79-1.59C585.37,278.08,585.04,278.65,585.04,279.71z"/>
			<path fill="#231F20" d="M587.68,281.33c0-0.22,0.15-0.38,0.36-0.38c0.21,0,0.35,0.16,0.35,0.38c0,0.22-0.14,0.38-0.36,0.38
				C587.83,281.71,587.68,281.54,587.68,281.33z"/>
			<path fill="#231F20" d="M589.01,281.03c0.15,0.1,0.5,0.25,0.86,0.25c0.68,0,0.89-0.43,0.88-0.76c-0.01-0.55-0.5-0.78-1.01-0.78
				h-0.29v-0.4h0.29c0.38,0,0.87-0.2,0.87-0.66c0-0.31-0.2-0.59-0.68-0.59c-0.31,0-0.61,0.14-0.78,0.26l-0.14-0.38
				c0.2-0.15,0.6-0.3,1.02-0.3c0.77,0,1.12,0.46,1.12,0.93c0,0.4-0.24,0.74-0.72,0.92v0.01c0.48,0.1,0.87,0.46,0.87,1
				c0,0.62-0.49,1.17-1.42,1.17c-0.44,0-0.82-0.14-1.01-0.26L589.01,281.03z"/>
			<path fill="#231F20" d="M591.96,281.64v-0.32l0.41-0.4c1-0.95,1.45-1.45,1.45-2.04c0-0.4-0.19-0.76-0.77-0.76
				c-0.35,0-0.65,0.18-0.83,0.33l-0.17-0.37c0.27-0.23,0.65-0.4,1.1-0.4c0.84,0,1.19,0.58,1.19,1.13c0,0.72-0.52,1.3-1.34,2.09
				l-0.31,0.29v0.01h1.75v0.44H591.96z"/>
			<path fill="#231F20" d="M596.48,279.52c0-0.3-0.01-0.55-0.02-0.79h0.46l0.02,0.47h0.02c0.16-0.28,0.43-0.53,0.91-0.53
				c0.4,0,0.7,0.24,0.82,0.58h0.01c0.09-0.16,0.2-0.29,0.32-0.38c0.17-0.13,0.37-0.2,0.64-0.2c0.38,0,0.95,0.25,0.95,1.26v1.71
				h-0.52V280c0-0.56-0.21-0.89-0.63-0.89c-0.3,0-0.53,0.22-0.62,0.48c-0.02,0.07-0.04,0.17-0.04,0.26v1.79h-0.52v-1.74
				c0-0.46-0.2-0.8-0.61-0.8c-0.33,0-0.57,0.26-0.65,0.53c-0.03,0.08-0.04,0.17-0.04,0.26v1.75h-0.52V279.52z"/>
			<path fill="#231F20" d="M601.48,279.52c0-0.3-0.01-0.55-0.02-0.79h0.46l0.02,0.47h0.02c0.16-0.28,0.43-0.53,0.91-0.53
				c0.4,0,0.7,0.24,0.82,0.58h0.01c0.09-0.16,0.2-0.29,0.32-0.38c0.17-0.13,0.37-0.2,0.64-0.2c0.38,0,0.95,0.25,0.95,1.26v1.71
				h-0.52V280c0-0.56-0.21-0.89-0.63-0.89c-0.3,0-0.53,0.22-0.62,0.48c-0.02,0.07-0.04,0.17-0.04,0.26v1.79h-0.52v-1.74
				c0-0.46-0.2-0.8-0.61-0.8c-0.33,0-0.57,0.26-0.65,0.53c-0.03,0.08-0.04,0.17-0.04,0.26v1.75h-0.52V279.52z"/>
			<path fill="#231F20" d="M608.9,277.48c-0.44,0.59-0.76,1.37-0.76,2.45c0,1.07,0.33,1.83,0.76,2.43h-0.41
				c-0.38-0.5-0.79-1.27-0.79-2.43c0.01-1.18,0.41-1.95,0.79-2.45H608.9z"/>
			<path fill="#231F20" d="M611.88,279.65c0,1.33-0.49,2.06-1.35,2.06c-0.76,0-1.28-0.71-1.29-2c0-1.31,0.56-2.03,1.36-2.03
				C611.42,277.68,611.88,278.41,611.88,279.65z M609.77,279.71c0,1.01,0.31,1.59,0.79,1.59c0.54,0,0.8-0.63,0.8-1.62
				c0-0.96-0.25-1.59-0.79-1.59C610.1,278.08,609.77,278.65,609.77,279.71z"/>
			<path fill="#231F20" d="M612.41,281.33c0-0.22,0.15-0.38,0.36-0.38s0.35,0.16,0.35,0.38c0,0.22-0.14,0.38-0.36,0.38
				C612.56,281.71,612.41,281.54,612.41,281.33z"/>
			<path fill="#231F20" d="M613.57,280.65c0-0.49,0.29-0.84,0.77-1.04l-0.01-0.02c-0.43-0.2-0.62-0.54-0.62-0.88
				c0-0.62,0.52-1.04,1.21-1.04c0.76,0,1.13,0.47,1.13,0.96c0,0.33-0.16,0.68-0.64,0.91v0.02c0.49,0.19,0.79,0.53,0.79,1.01
				c0,0.68-0.58,1.13-1.33,1.13C614.06,281.71,613.57,281.22,613.57,280.65z M615.67,280.63c0-0.47-0.33-0.7-0.86-0.85
				c-0.46,0.13-0.7,0.43-0.7,0.8c-0.02,0.4,0.28,0.74,0.78,0.74C615.36,281.32,615.67,281.03,615.67,280.63z M614.21,278.68
				c0,0.39,0.29,0.6,0.74,0.72c0.33-0.11,0.59-0.35,0.59-0.71c0-0.31-0.19-0.64-0.66-0.64
				C614.45,278.05,614.21,278.34,614.21,278.68z"/>
			<path fill="#231F20" d="M618.72,277.92c0.01,0.18-0.13,0.32-0.34,0.32c-0.19,0-0.32-0.14-0.32-0.32c0-0.19,0.14-0.33,0.33-0.33
				C618.59,277.59,618.72,277.74,618.72,277.92z M618.13,281.64v-2.9h0.53v2.9H618.13z"/>
			<path fill="#231F20" d="M619.54,279.52c0-0.3-0.01-0.55-0.03-0.79h0.47l0.03,0.48h0.01c0.14-0.28,0.48-0.55,0.96-0.55
				c0.4,0,1.03,0.24,1.03,1.24v1.73h-0.53v-1.67c0-0.47-0.17-0.86-0.67-0.86c-0.35,0-0.62,0.25-0.71,0.54
				c-0.02,0.07-0.04,0.16-0.04,0.25v1.75h-0.53V279.52z"/>
			<path fill="#231F20" d="M622.55,282.37c0.43-0.59,0.75-1.37,0.75-2.45c0-1.07-0.32-1.84-0.75-2.43h0.41
				c0.38,0.49,0.79,1.26,0.79,2.44c0,1.18-0.4,1.94-0.79,2.45H622.55z"/>
		</g>
	</g>
</g>
<g id="Layer_3">
</g>
</svg>
